<svg width="247" height="60" viewBox="0 0 247 60" fill="none" xmlns="http://www.w3.org/2000/svg">
<path d="M117.019 0.730469V12.5902H116.056V0.730469H117.019Z" fill="#0A5896"/>
<path d="M112.382 11.0919V6.78347C112.382 6.38712 112.295 6.04481 112.123 5.75655C111.95 5.4683 111.696 5.24696 111.362 5.09253C111.028 4.93811 110.615 4.8609 110.124 4.8609C109.671 4.8609 109.266 4.93811 108.91 5.09253C108.56 5.24181 108.282 5.44513 108.077 5.70251C107.877 5.95473 107.778 6.23527 107.778 6.54412L106.807 6.53639C106.807 6.2224 106.887 5.9187 107.049 5.62529C107.211 5.33189 107.44 5.06937 107.737 4.83773C108.034 4.6061 108.387 4.42336 108.797 4.28953C109.212 4.15055 109.668 4.08105 110.164 4.08105C110.79 4.08105 111.34 4.18143 111.815 4.38218C112.295 4.58293 112.67 4.88406 112.94 5.28556C113.21 5.68706 113.344 6.19151 113.344 6.79892V10.8371C113.344 11.1254 113.366 11.4239 113.409 11.7328C113.458 12.0416 113.525 12.2964 113.611 12.4972V12.5898H112.584C112.519 12.4045 112.468 12.1729 112.43 11.8949C112.398 11.6118 112.382 11.3441 112.382 11.0919ZM112.608 7.72546L112.624 8.43581H110.723C110.227 8.43581 109.782 8.47956 109.388 8.56707C108.999 8.64943 108.67 8.77297 108.401 8.93769C108.131 9.09726 107.923 9.29029 107.778 9.51678C107.637 9.74327 107.567 10.0006 107.567 10.2889C107.567 10.5874 107.645 10.8603 107.802 11.1073C107.964 11.3544 108.19 11.5526 108.481 11.7019C108.778 11.846 109.129 11.9181 109.533 11.9181C110.073 11.9181 110.547 11.8228 110.957 11.6324C111.373 11.4419 111.715 11.1923 111.985 10.8834C112.255 10.5746 112.435 10.2374 112.527 9.87195L112.948 10.4047C112.878 10.6621 112.748 10.9272 112.56 11.2C112.376 11.4677 112.136 11.7199 111.839 11.9567C111.543 12.1883 111.192 12.3788 110.788 12.528C110.388 12.6722 109.935 12.7442 109.428 12.7442C108.856 12.7442 108.357 12.6413 107.931 12.4354C107.511 12.2295 107.181 11.949 106.944 11.5938C106.712 11.2335 106.596 10.8268 106.596 10.3738C106.596 9.96203 106.688 9.59399 106.871 9.2697C107.055 8.94026 107.319 8.6623 107.664 8.43581C108.015 8.20417 108.436 8.02916 108.927 7.91077C109.423 7.78723 109.978 7.72546 110.593 7.72546H112.608Z" fill="#0A5896"/>
<path d="M103.555 10.6604V4.23633H104.526V12.5907H103.595L103.555 10.6604ZM103.733 9.11612L104.234 9.10068C104.234 9.62572 104.17 10.1096 104.04 10.5523C103.911 10.9949 103.708 11.381 103.433 11.7104C103.158 12.0399 102.802 12.2947 102.365 12.4748C101.928 12.655 101.402 12.7451 100.787 12.7451C100.361 12.7451 99.9702 12.6885 99.6142 12.5752C99.2636 12.4568 98.9615 12.2715 98.708 12.0193C98.4545 11.7671 98.2576 11.4402 98.1173 11.0387C97.9825 10.6372 97.915 10.1508 97.915 9.57939V4.23633H98.8779V9.59484C98.8779 10.0427 98.9292 10.4159 99.0316 10.7144C99.1395 11.013 99.2852 11.2523 99.4686 11.4325C99.6574 11.6126 99.8732 11.7413 100.116 11.8185C100.359 11.8958 100.62 11.9344 100.901 11.9344C101.613 11.9344 102.174 11.8031 102.584 11.5406C102.999 11.2781 103.293 10.9332 103.466 10.5059C103.644 10.0736 103.733 9.61028 103.733 9.11612Z" fill="#0A5896"/>
<path d="M94.7927 10.4588C94.7927 10.2323 94.7334 10.0084 94.6147 9.78702C94.4961 9.56568 94.2668 9.36235 93.927 9.17704C93.5925 8.99174 93.0989 8.83474 92.4462 8.70605C91.9608 8.6031 91.5265 8.48728 91.1435 8.3586C90.7659 8.22991 90.4477 8.07549 90.1887 7.89533C89.9298 7.71516 89.7329 7.49897 89.5981 7.24675C89.4632 6.99452 89.3958 6.69597 89.3958 6.35109C89.3958 6.04224 89.4659 5.75141 89.6062 5.47859C89.7518 5.20063 89.9568 4.9587 90.2211 4.7528C90.4908 4.54175 90.8145 4.37703 91.1921 4.25864C91.5751 4.14025 92.0039 4.08105 92.4786 4.08105C93.1529 4.08105 93.7301 4.19173 94.2102 4.41307C94.6956 4.62926 95.0652 4.92524 95.3187 5.301C95.5776 5.67677 95.7071 6.10143 95.7071 6.575H94.7442C94.7442 6.28674 94.6552 6.01393 94.4772 5.75655C94.3046 5.49918 94.0483 5.28813 93.7085 5.12342C93.3741 4.9587 92.9641 4.87634 92.4786 4.87634C91.9769 4.87634 91.5697 4.9484 91.2568 5.09253C90.9439 5.23666 90.7147 5.4194 90.569 5.64074C90.4288 5.86208 90.3587 6.09114 90.3587 6.32792C90.3587 6.51323 90.3883 6.6831 90.4477 6.83752C90.5124 6.9868 90.6257 7.12578 90.7875 7.25447C90.9547 7.38315 91.1921 7.50412 91.4995 7.61736C91.807 7.73061 92.2062 7.84128 92.6971 7.94937C93.4037 8.09865 93.9809 8.28139 94.4286 8.49758C94.8817 8.70862 95.2162 8.97115 95.432 9.28514C95.6477 9.59399 95.7556 9.96975 95.7556 10.4124C95.7556 10.7573 95.6801 11.0739 95.5291 11.3621C95.378 11.6453 95.1596 11.8898 94.8737 12.0957C94.5932 12.3016 94.2533 12.4611 93.8541 12.5744C93.4604 12.6876 93.018 12.7442 92.5272 12.7442C91.7881 12.7442 91.1624 12.6284 90.6499 12.3968C90.1429 12.16 89.7572 11.8512 89.4929 11.4702C89.234 11.0842 89.1045 10.675 89.1045 10.2426H90.0674C90.0997 10.675 90.2427 11.0173 90.4962 11.2695C90.7497 11.5166 91.0599 11.6916 91.4267 11.7945C91.7989 11.8975 92.1657 11.949 92.5272 11.949C93.0234 11.949 93.4388 11.8795 93.7732 11.7405C94.1077 11.6015 94.3612 11.4188 94.5338 11.1923C94.7064 10.9658 94.7927 10.7213 94.7927 10.4588Z" fill="#0A5896"/>
<path d="M81.3999 6.01908V12.5898H80.437V4.23548H81.3594L81.3999 6.01908ZM81.1814 7.89533L80.7526 7.66369C80.7849 7.16953 80.8901 6.70626 81.0681 6.27387C81.2461 5.84149 81.4862 5.46058 81.7883 5.13114C82.0957 4.8017 82.4545 4.54433 82.8644 4.35902C83.2798 4.17371 83.7383 4.08105 84.24 4.08105C84.6769 4.08105 85.068 4.13768 85.4132 4.25092C85.7584 4.36416 86.0524 4.54433 86.2952 4.7914C86.5379 5.03848 86.7213 5.35505 86.8454 5.74111C86.9749 6.12717 87.0396 6.59816 87.0396 7.15409V12.5898H86.0686V7.14637C86.0686 6.56985 85.985 6.11945 85.8178 5.79516C85.6506 5.46572 85.4132 5.23151 85.1057 5.09253C84.7983 4.95355 84.4342 4.88406 84.0134 4.88406C83.5495 4.88406 83.1422 4.98186 82.7916 5.17746C82.4464 5.36792 82.1551 5.61757 81.9177 5.92642C81.6858 6.23012 81.5078 6.55698 81.3837 6.90701C81.2596 7.25189 81.1922 7.58133 81.1814 7.89533Z" fill="#0A5896"/>
<path d="M75.2432 12.7442C74.6714 12.7442 74.1454 12.6439 73.6653 12.4431C73.1907 12.2424 72.7753 11.9592 72.4193 11.5938C72.0686 11.2283 71.7962 10.7959 71.602 10.2966C71.4132 9.79217 71.3188 9.24139 71.3188 8.64428V8.31227C71.3188 7.66884 71.4186 7.08717 71.6182 6.56728C71.8178 6.04739 72.0929 5.60213 72.4436 5.23151C72.7942 4.8609 73.1934 4.57778 73.6411 4.38218C74.0942 4.18143 74.5689 4.08105 75.0652 4.08105C75.6208 4.08105 76.1143 4.17628 76.5459 4.36674C76.9774 4.55205 77.3388 4.81714 77.6301 5.16202C77.9268 5.50175 78.1507 5.90583 78.3017 6.37425C78.4528 6.83752 78.5283 7.34969 78.5283 7.91077V8.47442H71.9014V7.68685H77.5654V7.57876C77.5546 7.11034 77.4548 6.6728 77.266 6.26615C77.0826 5.85436 76.8075 5.51977 76.4407 5.2624C76.0739 5.00502 75.6154 4.87634 75.0652 4.87634C74.6552 4.87634 74.2776 4.9587 73.9324 5.12342C73.5925 5.28813 73.2985 5.52492 73.0504 5.83377C72.8077 6.13747 72.6189 6.50036 72.484 6.92245C72.3545 7.3394 72.2898 7.80267 72.2898 8.31227V8.64428C72.2898 9.10755 72.3599 9.53994 72.5002 9.94144C72.6458 10.3378 72.8508 10.6878 73.1151 10.9915C73.3848 11.2952 73.7031 11.532 74.0699 11.7019C74.4367 11.8717 74.8413 11.9567 75.2836 11.9567C75.8015 11.9567 76.26 11.8666 76.6592 11.6864C77.0583 11.5011 77.4171 11.2103 77.7353 10.8139L78.3422 11.2618C78.1534 11.5294 77.916 11.7765 77.6301 12.003C77.3496 12.2295 77.0125 12.4097 76.6187 12.5435C76.2249 12.6773 75.7664 12.7442 75.2432 12.7442Z" fill="#0A5896"/>
<path d="M58.0803 5.96503V12.5898H57.1094V4.23548H58.0399L58.0803 5.96503ZM57.9023 7.89533L57.433 7.66369C57.4654 7.16953 57.5625 6.70626 57.7243 6.27387C57.8915 5.84149 58.1235 5.46058 58.4202 5.13114C58.7169 4.8017 59.0729 4.54433 59.4882 4.35902C59.9036 4.17371 60.3756 4.08105 60.9042 4.08105C61.3304 4.08105 61.7161 4.13768 62.0613 4.25092C62.4119 4.35902 62.7086 4.53146 62.9514 4.76824C63.1995 4.99988 63.391 5.30358 63.5258 5.67934C63.6607 6.05511 63.7281 6.50551 63.7281 7.03055V12.5898H62.7653V7.06144C62.7653 6.50551 62.6736 6.07055 62.4901 5.75655C62.3121 5.44256 62.0613 5.21864 61.7376 5.08481C61.4194 4.95098 61.0499 4.88406 60.6291 4.88406C60.1329 4.88406 59.7121 4.98186 59.3669 5.17746C59.027 5.36792 58.7492 5.61757 58.5335 5.92642C58.3231 6.23012 58.1667 6.55698 58.0642 6.90701C57.9617 7.25189 57.9077 7.58133 57.9023 7.89533ZM63.72 7.16953L63.0727 7.18498C63.0997 6.77833 63.1968 6.38969 63.364 6.01908C63.5366 5.64846 63.7713 5.31902 64.068 5.03076C64.3647 4.73736 64.718 4.50572 65.1279 4.33585C65.5433 4.16599 66.0099 4.08105 66.5278 4.08105C66.9809 4.08105 67.3854 4.14025 67.7415 4.25864C68.0975 4.37189 68.3969 4.55462 68.6396 4.80685C68.8877 5.05393 69.0765 5.37049 69.206 5.75655C69.3355 6.14261 69.4002 6.60589 69.4002 7.14637V12.5898H68.4292V7.13865C68.4292 6.54669 68.3375 6.08857 68.1541 5.76428C67.9761 5.43484 67.728 5.20578 67.4097 5.07709C67.0915 4.9484 66.7192 4.88406 66.2931 4.88406C65.8723 4.88921 65.5028 4.96384 65.1846 5.10797C64.8663 5.24696 64.5993 5.43226 64.3835 5.6639C64.1732 5.89039 64.0113 6.13489 63.898 6.39741C63.7902 6.65993 63.7308 6.91731 63.72 7.16953Z" fill="#0A5896"/>
<path d="M49.5602 11.0919V6.78347C49.5602 6.38712 49.4739 6.04481 49.3013 5.75655C49.1287 5.4683 48.8752 5.24696 48.5407 5.09253C48.2063 4.93811 47.7936 4.8609 47.3027 4.8609C46.8496 4.8609 46.4451 4.93811 46.089 5.09253C45.7384 5.24181 45.4606 5.44513 45.2556 5.70251C45.056 5.95473 44.9562 6.23527 44.9562 6.54412L43.9853 6.53639C43.9853 6.2224 44.0662 5.9187 44.228 5.62529C44.3898 5.33189 44.6191 5.06937 44.9158 4.83773C45.2125 4.6061 45.5658 4.42336 45.9758 4.28953C46.3911 4.15055 46.8469 4.08105 47.3432 4.08105C47.9689 4.08105 48.5192 4.18143 48.9938 4.38218C49.4739 4.58293 49.8488 4.88406 50.1186 5.28556C50.3883 5.68706 50.5231 6.19151 50.5231 6.79892V10.8371C50.5231 11.1254 50.5447 11.4239 50.5879 11.7328C50.6364 12.0416 50.7038 12.2964 50.7901 12.4972V12.5898H49.7625C49.6978 12.4045 49.6466 12.1729 49.6088 11.8949C49.5764 11.6118 49.5602 11.3441 49.5602 11.0919ZM49.7868 7.72546L49.803 8.43581H47.9015C47.4052 8.43581 46.9602 8.47956 46.5664 8.56707C46.178 8.64943 45.849 8.77297 45.5793 8.93769C45.3096 9.09726 45.1019 9.29029 44.9562 9.51678C44.816 9.74327 44.7459 10.0006 44.7459 10.2889C44.7459 10.5874 44.8241 10.8603 44.9805 11.1073C45.1423 11.3544 45.3689 11.5526 45.6602 11.7019C45.9569 11.846 46.3075 11.9181 46.7121 11.9181C47.2515 11.9181 47.7262 11.8228 48.1362 11.6324C48.5515 11.4419 48.8941 11.1923 49.1638 10.8834C49.4335 10.5746 49.6142 10.2374 49.7059 9.87195L50.1266 10.4047C50.0565 10.6621 49.9271 10.9272 49.7383 11.2C49.5549 11.4677 49.3148 11.7199 49.0181 11.9567C48.7214 12.1883 48.3708 12.3788 47.9662 12.528C47.5671 12.6722 47.1139 12.7442 46.6069 12.7442C46.0351 12.7442 45.5361 12.6413 45.11 12.4354C44.6892 12.2295 44.3602 11.949 44.1228 11.5938C43.8909 11.2335 43.7749 10.8268 43.7749 10.3738C43.7749 9.96203 43.8666 9.59399 44.05 9.2697C44.2334 8.94026 44.4977 8.6623 44.843 8.43581C45.1936 8.20417 45.6143 8.02916 46.1052 7.91077C46.6015 7.78723 47.1571 7.72546 47.772 7.72546H49.7868Z" fill="#0A5896"/>
<path d="M42.2063 4.23536V4.99204H37.8208V4.23536H42.2063ZM39.431 2.08887H40.3939V10.559C40.3939 10.9451 40.4478 11.2359 40.5557 11.4315C40.6636 11.6271 40.8038 11.7584 40.9764 11.8253C41.1491 11.8922 41.3352 11.9257 41.5347 11.9257C41.6804 11.9257 41.8206 11.9179 41.9555 11.9025C42.0904 11.8819 42.2117 11.8613 42.3196 11.8407L42.3601 12.6206C42.2414 12.6566 42.0877 12.6849 41.8989 12.7055C41.7101 12.7312 41.5213 12.7441 41.3325 12.7441C40.9603 12.7441 40.6312 12.6798 40.3453 12.5511C40.0594 12.4173 39.8356 12.1908 39.6737 11.8716C39.5119 11.5473 39.431 11.1072 39.431 10.5513V2.08887Z" fill="#0A5896"/>
<path d="M35.741 10.4588C35.741 10.2323 35.6816 10.0084 35.563 9.78702C35.4443 9.56568 35.215 9.36235 34.8752 9.17704C34.5408 8.99174 34.0472 8.83474 33.3945 8.70605C32.909 8.6031 32.4748 8.48728 32.0918 8.3586C31.7142 8.22991 31.3959 8.07549 31.137 7.89533C30.8781 7.71516 30.6812 7.49897 30.5463 7.24675C30.4115 6.99452 30.344 6.69597 30.344 6.35109C30.344 6.04224 30.4142 5.75141 30.5544 5.47859C30.7 5.20063 30.905 4.9587 31.1693 4.7528C31.4391 4.54175 31.7627 4.37703 32.1403 4.25864C32.5233 4.14025 32.9522 4.08105 33.4268 4.08105C34.1011 4.08105 34.6783 4.19173 35.1584 4.41307C35.6439 4.62926 36.0134 4.92524 36.2669 5.301C36.5258 5.67677 36.6553 6.10143 36.6553 6.575H35.6924C35.6924 6.28674 35.6034 6.01393 35.4254 5.75655C35.2528 5.49918 34.9966 5.28813 34.6567 5.12342C34.3223 4.9587 33.9123 4.87634 33.4268 4.87634C32.9252 4.87634 32.5179 4.9484 32.205 5.09253C31.8922 5.23666 31.6629 5.4194 31.5173 5.64074C31.377 5.86208 31.3069 6.09114 31.3069 6.32792C31.3069 6.51323 31.3366 6.6831 31.3959 6.83752C31.4606 6.9868 31.5739 7.12578 31.7357 7.25447C31.903 7.38315 32.1403 7.50412 32.4478 7.61736C32.7553 7.73061 33.1544 7.84128 33.6453 7.94937C34.352 8.09865 34.9291 8.28139 35.3769 8.49758C35.83 8.70862 36.1644 8.97115 36.3802 9.28514C36.596 9.59399 36.7039 9.96975 36.7039 10.4124C36.7039 10.7573 36.6283 11.0739 36.4773 11.3621C36.3263 11.6453 36.1078 11.8898 35.8219 12.0957C35.5414 12.3016 35.2016 12.4611 34.8024 12.5744C34.4086 12.6876 33.9663 12.7442 33.4754 12.7442C32.7364 12.7442 32.1106 12.6284 31.5982 12.3968C31.0911 12.16 30.7054 11.8512 30.4411 11.4702C30.1822 11.0842 30.0527 10.675 30.0527 10.2426H31.0156C31.048 10.675 31.1909 11.0173 31.4445 11.2695C31.698 11.5166 32.0082 11.6916 32.375 11.7945C32.7472 11.8975 33.114 11.949 33.4754 11.949C33.9717 11.949 34.387 11.8795 34.7215 11.7405C35.0559 11.6015 35.3094 11.4188 35.4821 11.1923C35.6547 10.9658 35.741 10.7213 35.741 10.4588Z" fill="#0A5896"/>
<path d="M27.852 4.23502V12.5894H26.8892V4.23502H27.852ZM26.7192 1.81829C26.7192 1.64327 26.7759 1.49657 26.8892 1.37818C27.0078 1.25464 27.1697 1.19287 27.3746 1.19287C27.5796 1.19287 27.7415 1.25464 27.8601 1.37818C27.9842 1.49657 28.0462 1.64327 28.0462 1.81829C28.0462 1.98815 27.9842 2.13486 27.8601 2.2584C27.7415 2.37679 27.5796 2.43598 27.3746 2.43598C27.1697 2.43598 27.0078 2.37679 26.8892 2.2584C26.7759 2.13486 26.7192 1.98815 26.7192 1.81829Z" fill="#0A5896"/>
<path d="M21.378 11.7027L24.1857 4.23633H25.181L21.904 12.5907H21.2L21.378 11.7027ZM18.8373 4.23633L21.6774 11.7259L21.8311 12.5907H21.1191L17.834 4.23633H18.8373Z" fill="#0A5896"/>
<path d="M13.7163 12.7442C13.1445 12.7442 12.6186 12.6439 12.1385 12.4431C11.6638 12.2424 11.2484 11.9592 10.8924 11.5938C10.5418 11.2283 10.2694 10.7959 10.0752 10.2966C9.88639 9.79217 9.79199 9.24139 9.79199 8.64428V8.31227C9.79199 7.66884 9.89179 7.08717 10.0914 6.56728C10.291 6.04739 10.5661 5.60213 10.9167 5.23151C11.2673 4.8609 11.6665 4.57778 12.1142 4.38218C12.5673 4.18143 13.042 4.08105 13.5383 4.08105C14.0939 4.08105 14.5875 4.17628 15.019 4.36674C15.4506 4.55205 15.812 4.81714 16.1033 5.16202C16.4 5.50175 16.6238 5.90583 16.7749 6.37425C16.9259 6.83752 17.0014 7.34969 17.0014 7.91077V8.47442H10.3746V7.68685H16.0385V7.57876C16.0278 7.11034 15.928 6.6728 15.7392 6.26615C15.5558 5.85436 15.2807 5.51977 14.9138 5.2624C14.547 5.00502 14.0885 4.87634 13.5383 4.87634C13.1283 4.87634 12.7507 4.9587 12.4055 5.12342C12.0657 5.28813 11.7717 5.52492 11.5235 5.83377C11.2808 6.13747 11.092 6.50036 10.9572 6.92245C10.8277 7.3394 10.763 7.80267 10.763 8.31227V8.64428C10.763 9.10755 10.8331 9.53994 10.9733 9.94144C11.119 10.3378 11.324 10.6878 11.5883 10.9915C11.858 11.2952 12.1763 11.532 12.5431 11.7019C12.9099 11.8717 13.3144 11.9567 13.7568 11.9567C14.2746 11.9567 14.7331 11.8666 15.1323 11.6864C15.5315 11.5011 15.8902 11.2103 16.2085 10.8139L16.8153 11.2618C16.6265 11.5294 16.3892 11.7765 16.1033 12.003C15.8228 12.2295 15.4856 12.4097 15.0919 12.5435C14.6981 12.6773 14.2396 12.7442 13.7163 12.7442Z" fill="#0A5896"/>
<path d="M0 1.34717H3.82723C4.64176 1.34717 5.34841 1.47328 5.94717 1.72551C6.54593 1.97773 7.00714 2.35092 7.3308 2.84508C7.65985 3.33409 7.82437 3.93634 7.82437 4.65184C7.82437 5.18203 7.7057 5.66332 7.46835 6.0957C7.2364 6.52809 6.91544 6.89099 6.50548 7.18439C6.09551 7.47265 5.62082 7.67083 5.08139 7.77892L4.73346 7.90246H0.647311L0.631128 7.09174H4.05379C4.66873 7.09174 5.18119 6.97849 5.59115 6.75201C6.00111 6.52552 6.30859 6.22696 6.51357 5.85635C6.72395 5.48058 6.82913 5.07908 6.82913 4.65184C6.82913 4.14224 6.71316 3.70213 6.4812 3.33152C6.25464 2.95575 5.9175 2.66749 5.46978 2.46674C5.02206 2.26599 4.47454 2.16561 3.82723 2.16561H0.995241V12.5892H0V1.34717ZM7.27416 12.5892L4.22371 7.56273L5.29177 7.55501L8.33413 12.4889V12.5892H7.27416Z" fill="#0A5896"/>
<path fill-rule="evenodd" clip-rule="evenodd" d="M247 59.2695L0 59.2695L0 56.4204L247 56.4204V59.2695Z" fill="#0A5896"/>
<path d="M52.4572 51.7363C53.9662 49.7508 56.8254 46.574 55.0781 44.6678C54.7604 44.0325 53.9662 44.4296 53.172 45.6209C52.1395 47.2093 51.1865 48.2418 49.6775 48.5595C48.5656 48.7978 46.5006 48.7978 44.4357 48.4801C42.609 48.1624 42.3707 47.4476 41.8148 46.4151V30.928C41.7353 29.1807 43.6414 29.6572 44.7533 29.1013C45.071 28.9424 45.1505 28.3865 45.071 27.6717C44.8328 26.6392 41.0205 27.1952 37.8437 27.0363C35.3022 26.9569 33.3167 27.0363 31.8871 27.1157C30.3781 27.5923 30.934 28.6247 31.3311 28.863C32.7607 29.8161 34.3491 28.9424 34.4286 30.6897V45.8592C34.4286 45.8592 33.7932 48.7183 31.8077 48.8772C31.8077 48.8772 30.6163 48.9566 30.3781 49.1154C29.6633 49.7508 29.6633 51.8952 30.5369 51.8952C35.8582 51.8952 49.2009 51.8952 49.2009 51.8952C50.7894 51.8952 51.4247 52.3717 52.4572 51.7363Z" fill="#0A5896"/>
<path d="M243.188 51.7363C244.697 49.7508 247.556 46.574 245.809 44.6679C245.491 44.0325 244.697 44.4296 243.903 45.6209C242.87 47.2093 241.917 48.2418 240.408 48.5595C239.297 48.7978 237.232 48.7978 235.167 48.4801C233.34 48.1624 233.102 47.4476 232.546 46.4151V30.928C232.466 29.1807 234.372 29.6572 235.484 29.1013C235.802 28.9424 235.881 28.3865 235.802 27.6717C235.564 26.6392 231.751 27.1952 228.575 27.0363C226.033 26.9569 224.048 27.0363 222.618 27.1157C221.109 27.5923 221.665 28.6247 222.062 28.863C223.492 29.8161 225.08 28.9424 225.16 30.6897V45.8592C225.16 45.8592 224.524 48.7183 222.539 48.8772C222.539 48.8772 221.347 48.9566 221.109 49.1154C220.394 49.5126 220.394 51.7363 221.268 51.7363C226.589 51.7363 239.932 51.7363 239.932 51.7363C241.52 51.8952 242.156 52.3717 243.188 51.7363Z" fill="#0A5896"/>
<path d="M25.1357 44.9855C24.5004 46.7328 22.8325 48.2418 22.0383 48.48C20.3705 49.036 16.7965 48.7183 13.7785 48.7183C11.7135 48.0035 11.3164 47.0505 11.3958 45.7003V41.3321C11.8724 40.5379 12.5872 40.1408 13.6991 39.982C14.1756 39.9025 15.6846 39.982 15.6846 39.982C17.5113 40.6968 16.9553 43.6353 18.2261 43.953C19.8145 44.2707 19.7351 41.6498 19.8145 39.7437C19.8939 37.8376 19.4968 33.9459 18.1467 33.9459C16.1611 34.0254 17.9878 37.2022 15.1286 37.7582C15.1286 37.7582 13.7785 37.7582 13.302 37.7582C12.3489 37.6787 11.793 37.2816 11.3958 36.964V30.7691C11.3958 30.7691 11.3164 30.2926 11.7135 29.8955C12.0312 29.4983 12.746 29.3395 12.746 29.3395H21.1647C22.0383 29.3395 22.9119 30.6897 23.6267 32.4369C23.9444 33.2312 25.2152 33.3106 25.5328 32.6752C26.2476 31.2456 26.6447 28.1482 24.7386 27.1157C23.4679 26.4009 22.0383 27.1951 20.5293 27.1951H1.22992C-0.0408238 27.1951 -0.358509 28.7836 0.515125 29.1807C0.832811 29.2601 1.86529 29.3395 1.86529 29.3395C2.58008 29.4983 3.7714 30.1337 3.93024 31.5633V47.1299C3.61256 48.2418 2.73892 48.8772 2.02413 49.036C2.02413 49.036 0.832811 49.1154 0.515125 49.2743C-0.279088 49.6714 -0.120245 51.8157 0.753389 51.8157C6.47172 51.8157 21.7206 51.8157 21.7206 51.8157C22.9119 51.7363 24.8181 52.61 25.6917 51.7363C27.6772 49.8302 27.5978 46.0974 27.7566 44.5884C27.8361 43.8736 25.9299 43.3177 25.1357 44.9855Z" fill="#0A5896"/>
<path d="M95.8619 50.3865C95.703 49.2746 93.241 49.2746 92.7644 48.5598C92.2879 47.9244 85.9342 36.0906 83.7898 32.1196C81.7249 28.2279 80.4541 26.5601 77.4361 26.5601C74.4181 26.5601 73.3062 27.5925 72.7503 29.181C72.1943 30.7694 73.7033 32.7549 72.8297 34.2639C71.956 35.7729 65.2847 48.2421 65.2847 48.2421C65.2847 48.2421 61.3136 49.8305 61.2342 50.4659C61.1547 51.1012 60.8371 51.8955 62.1078 51.8955H70.6059C70.6059 51.8955 72.7503 51.8955 72.7503 50.3865C72.7503 49.1951 70.6853 49.5128 70.1294 48.9569C69.5734 48.3215 71.003 45.5418 71.003 45.5418L81.9631 45.4623C81.9631 45.4623 82.9162 47.289 83.3133 48.0038C83.1545 48.7186 82.9956 49.1951 80.4541 49.7511C80.4541 49.7511 79.104 50.6247 79.8982 51.4189C80.613 52.1337 84.0281 51.8955 84.5046 51.8955C84.9811 51.8955 93.3998 51.816 93.3998 51.816C93.3998 51.816 96.1001 51.8955 95.8619 50.3865ZM80.2159 42.0472L72.512 42.1266C71.5589 41.8884 72.3532 40.3794 72.3532 40.3794L74.5769 36.3289C74.5769 36.3289 74.9741 35.5347 75.6888 35.2964C76.6419 34.9787 77.1184 35.6141 77.1184 35.6141C77.1184 35.6141 78.8657 38.6321 79.5805 39.744C81.0101 42.2061 80.2159 42.0472 80.2159 42.0472Z" fill="#0A5896"/>
<path d="M116.67 27.1152H98.1649C98.1649 27.1152 97.1325 27.0358 97.2119 28.0682C97.2913 29.2596 98.4032 29.4184 98.4032 29.4184C100.865 29.4184 101.024 30.4509 101.183 31.6422C101.183 31.6422 101.421 47.1294 100.945 48.4795C100.468 49.8297 98.3238 49.7503 98.1649 50.6239C98.0855 51.3387 98.3238 51.6564 98.7209 51.8946C99.118 52.0535 100.071 52.0535 100.071 52.0535H109.205C109.205 52.0535 111.269 51.9741 111.825 51.7358C112.143 51.6564 112.381 51.2593 112.381 50.7033C112.381 49.6708 111.746 49.9091 110.396 49.3532C108.966 48.7972 108.966 47.2882 108.966 47.2882V42.3641C108.966 42.3641 113.334 42.4435 116.591 41.967C119.847 41.4904 124.215 39.6638 124.215 33.7072C124.215 27.7506 116.67 27.1152 116.67 27.1152ZM112.699 38.7901C110.237 39.0284 109.363 39.0284 108.966 38.1547C108.887 36.7252 108.887 33.1512 108.807 31.0862C108.807 30.5303 108.887 30.2126 109.046 29.9743C109.205 29.7361 109.602 29.5772 109.919 29.5772C110.714 29.5772 111.746 29.5772 112.858 29.6567C115.082 29.8155 116.352 32.2776 116.194 34.6602C116.194 36.4869 115.241 38.5519 112.699 38.7901Z" fill="#0A5896"/>
<path d="M155.269 33.2308C153.442 28.6244 147.406 27.1154 147.406 27.1154C141.926 25.2887 135.572 27.4331 135.572 27.4331C124.771 32.2778 126.995 42.3643 128.345 45.0646C129.695 47.7649 136.128 55.6276 147.644 51.2595C159.16 46.8913 157.095 37.8373 155.269 33.2308ZM142.164 46.9707C137.796 44.6675 135.255 40.2199 135.572 34.581C135.731 31.2453 138.829 30.2922 141.37 31.563C146.215 33.9456 148.915 41.9672 148.439 44.7469C148.041 46.8913 144.626 48.2414 142.164 46.9707Z" fill="#0A5896"/>
<path d="M138.51 23.7802C138.51 23.7802 140.496 24.4156 142.561 23.5419C144.626 22.6683 147.961 21.3975 148.12 20.2062C148.279 19.0149 147.088 18.3001 143.276 18.3795C143.276 18.3795 141.608 18.459 140.575 20.5239C140.099 21.0004 138.669 22.1918 138.669 22.1918C138.669 22.1918 137.398 23.2242 138.51 23.7802Z" fill="#0A5896"/>
<path d="M177.427 51.4178C183.463 50.0677 185.448 44.667 183.86 40.6165C182.668 37.6779 176.791 36.0101 174.091 35.2953C171.391 34.6599 169.723 34.0245 170.279 31.4036C170.914 28.5445 174.885 29.7358 176.474 30.2123C178.3 30.8477 179.889 34.2628 181.636 34.1834C183.383 34.104 183.78 33.7069 183.622 31.0065C183.463 28.3062 181.874 26.956 180.762 26.8766C179.809 26.7972 179.174 27.3532 178.062 27.5914C176.95 27.8297 171.708 26.1618 167.499 26.7972C163.29 27.4326 160.033 30.53 160.272 34.7393C160.589 39.7429 166.149 42.1255 170.199 43.2374C174.25 44.2699 174.965 45.5406 174.25 47.4468C173.456 49.5117 167.896 48.6381 166.387 47.8439C164.878 47.0496 163.528 45.223 162.337 43.7139C161.145 42.2844 160.272 43.0786 160.272 43.0786C158.922 44.1111 160.033 47.2879 161.145 49.2734C162.257 51.259 164.084 50.703 165.116 50.9413C165.196 50.8619 170.994 52.8474 177.427 51.4178Z" fill="#0A5896"/>
<path d="M203.398 36.964C203.08 36.964 201.174 36.6463 201.174 36.6463V35.8521C201.174 35.8521 204.192 34.9785 204.986 35.3756C204.986 35.3756 203.954 33.8666 202.207 34.5814C200.459 35.2962 199.745 34.9785 199.03 37.2023L201.095 37.8376C201.095 37.7582 203.716 36.964 203.398 36.964Z" fill="#0A5896"/>
<path d="M198.792 42.5237C198.792 42.5237 197.442 39.4263 197.203 39.4263C197.362 39.188 197.997 37.8379 197.997 37.8379L194.9 37.5996L192.676 38.8704C192.676 38.8704 193.709 40.8559 193.788 39.6646C193.868 38.4732 196.171 39.2675 196.171 39.2675C196.171 39.2675 196.33 39.5057 196.488 39.8234L194.582 41.0941C194.582 41.0941 196.488 41.1736 196.886 40.6176C197.124 41.0941 197.283 41.5707 197.362 41.8884C197.442 42.762 194.582 42.2855 194.582 42.2855L196.647 42.762C196.647 42.762 198.156 43.3974 198.871 43.7945C198.792 43.3974 198.792 42.5237 198.792 42.5237Z" fill="#0A5896"/>
<path d="M198.95 43.8735C199.03 44.0324 199.109 44.1912 199.268 44.1912C199.506 44.1912 199.347 44.0324 198.95 43.8735Z" fill="#0A5896"/>
<path d="M206.337 34.1044C206.099 33.6279 205.622 32.9925 205.622 32.9925L204.113 32.6748L205.146 34.5015C205.146 34.5015 206.575 34.5809 206.337 34.1044Z" fill="#0A5896"/>
<path d="M207.051 35.0576L207.766 37.4403H208.481L208.56 35.0576L207.766 36.2489L207.051 35.0576Z" fill="#0A5896"/>
<path d="M202.683 41.7282H205.939C205.939 41.7282 206.257 42.5224 206.257 42.9989C206.257 43.4754 207.368 42.9989 207.368 42.9989L206.971 41.3311L202.683 41.7282Z" fill="#0A5896"/>
<path d="M203.398 44.6675L203.001 44.2704L201.889 44.7469L202.524 43.0791C202.524 43.0791 202.524 43.0791 202.207 43.7145C201.889 44.3498 199.824 44.5881 199.824 44.5881L201.412 44.9058L199.506 45.7L201.412 46.8119L201.174 45.9383L203.398 44.6675Z" fill="#0A5896"/>
<path d="M202.842 25.2095C194.344 25.2095 187.434 31.4838 187.434 39.267C187.434 47.0503 194.344 53.3246 202.842 53.3246C211.34 53.3246 218.25 47.0503 218.25 39.267C218.25 31.4838 211.34 25.2095 202.842 25.2095ZM208.322 27.8304C207.448 27.5127 206.575 27.2744 205.939 27.1156C206.733 27.2744 207.528 27.5127 208.322 27.8304ZM206.098 51.3391C204.748 50.7831 204.43 49.5918 204.43 49.5918C204.51 48.3211 206.098 48.5593 206.098 48.5593L206.733 50.1478C206.733 50.1478 207.448 48.7182 208.242 47.8446C209.037 46.9709 209.751 43.397 209.751 43.397C208.878 46.0179 207.845 46.9709 206.098 48.1622C204.748 49.0359 202.842 48.4005 201.968 48.0034L201.73 47.2092L203.159 47.1298L204.43 46.0973L204.748 44.9854C204.43 46.0973 201.492 46.8121 201.492 46.8121C201.492 46.8121 201.333 47.5269 201.253 48.2417C201.015 48.2417 200.618 48.1622 200.141 48.0034C197.918 47.368 191.961 39.5847 191.961 39.5847C191.723 41.0143 193.232 41.2526 193.55 43.7941C193.867 46.3355 196.012 47.0503 196.012 47.0503C196.012 47.0503 196.012 47.0503 196.329 48.6388C196.647 50.2272 197.997 49.3536 198.95 49.7507C199.506 49.9889 199.586 50.7831 199.506 51.3391C193.55 49.9889 189.102 45.0648 189.102 39.3465C189.102 37.5198 189.578 35.7725 190.373 34.1841L191.961 36.5667L193.629 36.1696C192.438 35.4548 191.643 32.7545 191.643 32.7545L191.405 32.3574C193.867 29.0217 198.077 26.7979 202.921 26.7979C203.557 26.7979 204.192 26.8773 204.827 26.9567C206.257 28.1481 205.304 29.8953 205.304 29.8953C205.304 29.8953 207.21 30.1336 207.925 30.5307C208.64 30.9278 207.845 33.3104 207.845 33.3104C207.845 33.3104 208.242 32.0397 209.751 32.5162C211.26 32.9928 210.387 34.8989 210.387 34.8989C210.387 34.8989 210.625 36.1696 210.307 37.2815C209.99 38.3934 209.513 37.9963 209.513 37.9963L209.751 41.0937L210.784 40.0613L211.022 42.2851C211.022 42.2851 212.293 42.5233 213.008 40.7761C213.723 39.0288 211.737 33.3104 211.816 31.5632C211.896 30.6895 212.452 30.5307 213.087 30.6101C215.47 32.8339 216.979 35.9314 216.979 39.267C216.661 45.0648 212.134 49.9889 206.098 51.3391Z" fill="#0A5896"/>
<path d="M202.842 53.2455C194.344 53.2455 187.434 46.9712 187.434 39.1879C187.434 31.4047 194.344 25.1304 202.842 25.1304C211.34 25.1304 218.25 31.4047 218.25 39.1879C218.25 46.9712 211.34 53.2455 202.842 53.2455ZM202.842 26.7982C195.217 26.7982 189.023 32.3577 189.023 39.2674C189.023 46.177 195.217 51.7365 202.842 51.7365C210.466 51.7365 216.661 46.177 216.661 39.2674C216.661 32.3577 210.466 26.7982 202.842 26.7982Z" fill="#0A5896"/>
</svg>
