<svg width="250" height="57" viewBox="0 0 250 57" fill="none" xmlns="http://www.w3.org/2000/svg">
<g clip-path="url(#clip0_729_109)">
<rect x="0.25" y="0.25" width="249.5" height="56.5" rx="1.75" stroke="#0A5896" stroke-opacity="0.2" stroke-width="0.5"/>
<path fill-rule="evenodd" clip-rule="evenodd" d="M167.618 2.07225C167.618 2.07225 167.613 9.53898 167.618 11.139C167.623 12.739 167.644 15.2563 168.689 16.2803L171.1 13.6776C171.1 13.6776 170.119 12.5742 169.671 11.0246C169.223 9.47491 168.817 5.67758 168.817 4.48288C168.817 4.21165 168.822 4.0009 168.825 3.8314V3.83107V3.83077V3.83052V3.8303V3.83011V3.82995V3.8298V3.82968V3.82957C168.837 3.25411 168.84 3.15507 168.625 2.77619C168.348 2.2855 167.618 1.81624 167.618 2.07225ZM163.872 12.9286L165.895 14.4671C165.895 14.4671 166.151 13.4858 166.193 12.6964C166.236 11.9071 166.193 4.7604 165.98 4.14171C165.98 4.14171 164.828 4.6324 164.743 5.5924C164.695 6.1304 164.654 6.3468 164.623 6.50818C164.599 6.63478 164.581 6.72753 164.572 6.9151C164.565 7.05005 164.561 7.26183 164.555 7.49981V7.50023C164.544 8.0146 164.53 8.6512 164.487 8.89911C164.453 9.09001 164.431 9.59417 164.409 10.1129V10.113V10.1132L164.409 10.1135C164.388 10.5801 164.368 11.0584 164.337 11.3311C164.273 11.9071 163.872 12.9286 163.872 12.9286ZM151.132 17.3686C149.468 17.3473 146.033 17.5393 146.033 17.5393C146.097 16.8353 147.783 16.3018 149.361 16.1525C149.981 16.0939 150.89 16.0484 151.949 15.9955C153.588 15.9135 155.585 15.8136 157.426 15.6192C160.455 15.2992 161.618 14.5419 161.618 14.5419C162.62 14.9046 164.338 16.3446 164.338 16.3446C163.68 17.4168 160.402 17.3815 158.672 17.3629C158.268 17.3585 157.949 17.3551 157.767 17.3669C156.807 17.4292 152.796 17.3899 151.132 17.3686ZM127.936 27.3772C127.936 27.3772 129.225 27.7898 130.566 27.2225C130.695 27.1679 130.831 27.1109 130.973 27.0518C132.304 26.4969 134.082 25.7557 134.175 25.0566C134.278 24.2831 133.505 23.819 131.03 23.8706C131.03 23.8706 129.947 23.9221 129.276 25.2629C128.967 25.5723 128.039 26.3459 128.039 26.3459C128.039 26.3459 127.214 27.0163 127.936 27.3772ZM133.711 29.5433C133.711 29.5433 137.631 30.5231 138.817 33.5141C140.003 36.5051 141.344 42.3839 133.866 45.2202C126.389 48.0565 122.212 42.9512 121.335 41.1979C120.458 39.4445 119.014 32.8953 126.028 29.7496C126.028 29.7496 130.153 28.3572 133.711 29.5433ZM126.028 34.3908C125.821 38.0522 127.472 40.94 130.308 42.4355C131.907 43.2606 134.124 42.3839 134.382 40.9916C134.691 39.1867 132.938 33.9782 129.792 32.4312C128.142 31.6061 126.131 32.2249 126.028 34.3908ZM99.1028 43.8956C99.6241 44.0596 100.184 44.2357 100.243 44.6532C100.398 45.633 98.6448 45.5814 98.6448 45.5814C98.6448 45.5814 93.1785 45.633 92.8691 45.633C92.828 45.633 92.7532 45.6357 92.6533 45.6394C92.0013 45.6632 90.2806 45.726 89.8781 45.3236C89.3624 44.8079 90.2391 44.2406 90.2391 44.2406C91.8893 43.8796 91.9924 43.5702 92.0956 43.1061C91.8377 42.642 91.2189 41.4559 91.2189 41.4559L84.1024 41.5075C84.1024 41.5075 83.1742 43.3124 83.5352 43.7249C83.6721 43.8619 83.9502 43.9172 84.2425 43.9753C84.7206 44.0704 85.2369 44.1731 85.2369 44.6532C85.2369 45.633 83.8446 45.633 83.8446 45.633H78.3267C77.6064 45.633 77.6722 45.2399 77.7348 44.8656C77.7439 44.8112 77.7529 44.7571 77.7595 44.7047C77.811 44.2922 80.3895 43.2608 80.3895 43.2608C80.3895 43.2608 84.7213 35.1645 85.2885 34.1847C85.5921 33.6603 85.4525 33.0472 85.3125 32.4324C85.191 31.8986 85.0692 31.3636 85.2369 30.8843C85.5979 29.8529 86.3199 29.1825 88.2795 29.1825C90.2391 29.1825 91.0642 30.2655 92.405 32.7924C92.6153 33.1818 92.888 33.6878 93.2005 34.2676C94.9566 37.5262 97.9696 43.1168 98.2323 43.4671C98.3628 43.6628 98.7226 43.776 99.1028 43.8956ZM85.0822 39.29L90.0844 39.2384C90.0844 39.2384 90.6001 39.3416 89.6719 37.743C89.2077 37.021 88.0732 35.0614 88.0732 35.0614C88.0732 35.0614 87.7638 34.6488 87.145 34.8551C86.6809 35.0098 86.423 35.5255 86.423 35.5255L84.9791 38.1555C84.9791 38.1555 84.4634 39.1353 85.0822 39.29ZM54.3208 41.1461C53.9082 42.2806 52.8253 43.2604 52.3096 43.4151C51.5181 43.679 50.0653 43.6398 48.5756 43.5996C48.0272 43.5848 47.4737 43.5698 46.9465 43.5698C45.6057 43.1057 45.3478 42.4869 45.3994 41.6102V38.774C45.7088 38.2583 46.1729 38.0004 46.8949 37.8973C47.2043 37.8457 48.1841 37.8973 48.1841 37.8973C48.8243 38.1478 49.0138 38.8191 49.1824 39.4163C49.3261 39.9255 49.4546 40.3808 49.8343 40.4757C50.7691 40.6627 50.8143 39.2822 50.8529 38.1005V38.1005V38.1004V38.1004C50.8569 37.9783 50.8608 37.8584 50.8657 37.7426C50.9172 36.5049 50.6594 33.9781 49.7827 33.9781C49.1927 34.0017 49.1211 34.4466 49.0391 34.9568C48.9419 35.5613 48.8299 36.2576 47.8231 36.4534H46.637C46.0182 36.4018 45.6572 36.144 45.3994 35.9377V31.9153C45.3994 31.9153 45.3478 31.6059 45.6057 31.3481C45.8119 31.0902 46.2761 30.9871 46.2761 30.9871H51.7423C52.3096 30.9871 52.8769 31.8637 53.341 32.9983C53.5472 33.5139 54.3723 33.5655 54.5786 33.153C55.0427 32.2247 55.3006 30.2135 54.0629 29.5432C53.5297 29.2432 52.9533 29.3525 52.3478 29.4674C52.0164 29.5302 51.6763 29.5947 51.3298 29.5947H38.7986C37.9735 29.5947 37.7672 30.6261 38.3345 30.8839C38.5407 30.9355 39.2111 30.9871 39.2111 30.9871C39.6753 31.0902 40.4488 31.5028 40.5519 32.431V42.5385C40.3457 43.2604 39.7784 43.673 39.3143 43.7761C39.3143 43.7761 38.5407 43.8277 38.3345 43.9308C37.8188 44.1887 37.9219 45.581 38.4892 45.581H52.1033C52.3708 45.5632 52.6938 45.6194 53.0254 45.677C53.6527 45.7861 54.3107 45.9005 54.6818 45.5295C55.7773 44.4778 55.9046 42.5697 55.9815 41.4188C55.995 41.2153 56.007 41.0355 56.0225 40.8883C56.0741 40.4242 54.8365 40.0632 54.3208 41.1461ZM72.3895 45.1045C72.2731 45.2533 72.1619 45.3956 72.0602 45.5294C71.6176 45.8018 71.2874 45.7595 70.8174 45.6993C70.5754 45.6683 70.2964 45.6326 69.9459 45.6326H57.8272C57.26 45.6326 57.26 44.2402 57.7241 43.8277C57.8788 43.7245 58.6523 43.673 58.6523 43.673C59.9415 43.5698 60.3541 41.7134 60.3541 41.7134V31.8637C60.3228 31.1752 59.9306 31.1135 59.4197 31.033C59.0887 30.9809 58.7078 30.9209 58.3429 30.6776C58.0851 30.5229 57.7241 29.8525 58.7039 29.5431C59.6321 29.4916 60.9213 29.44 62.5715 29.4916C63.224 29.5242 63.9177 29.5104 64.5663 29.4974H64.5663H64.5664H64.5664H64.5664H64.5665H64.5665H64.5665H64.5666H64.5666H64.5666H64.5666C65.9682 29.4695 67.1585 29.4458 67.2643 29.9041C67.3159 30.3682 67.2643 30.7292 67.058 30.8324C66.832 30.9454 66.5554 30.9927 66.2837 31.0391C65.6875 31.1411 65.1145 31.2391 65.15 32.0184V42.0743C65.1646 42.1015 65.1789 42.1283 65.1929 42.1547L65.2304 42.2257C65.5409 42.8148 65.7571 43.2248 66.8517 43.4151C68.1925 43.6214 69.5333 43.6214 70.2553 43.4667C71.2351 43.2604 71.8539 42.59 72.5243 41.5586C73.04 40.7851 73.5557 40.5273 73.7619 40.9398C74.7786 42.0489 73.3933 43.8207 72.3895 45.1045ZM210.271 45.106L210.271 45.1061L210.27 45.1068L210.267 45.1109C210.152 45.2574 210.043 45.3975 209.943 45.5294C209.471 45.8194 209.128 45.7527 208.607 45.6517C208.387 45.6089 208.135 45.5601 207.828 45.5294H195.71C195.142 45.5294 195.142 44.0855 195.607 43.8277C195.761 43.7245 196.535 43.673 196.535 43.673C197.824 43.5698 198.237 41.7134 198.237 41.7134V31.8637C198.205 31.1752 197.813 31.1135 197.302 31.033C196.971 30.9809 196.59 30.9209 196.225 30.6776C195.968 30.5229 195.607 29.8525 196.586 29.5431C197.515 29.4916 198.804 29.44 200.454 29.4916C201.107 29.5242 201.801 29.5104 202.449 29.4974C203.851 29.4695 205.041 29.4458 205.147 29.9041C205.198 30.3682 205.147 30.7292 204.941 30.8324C204.714 30.9454 204.438 30.9927 204.166 31.0391C203.57 31.1411 202.997 31.2391 203.032 32.0184V42.0743C203.06 42.1257 203.087 42.1759 203.112 42.2248L203.113 42.2257C203.423 42.8147 203.64 43.2247 204.734 43.4151C206.075 43.6214 207.416 43.6214 208.138 43.4667C209.118 43.2604 209.736 42.59 210.407 41.5586C210.923 40.7851 211.438 40.5273 211.644 40.9398C212.661 42.049 211.276 43.8207 210.272 45.1046L210.271 45.106ZM113.755 29.5431H101.739C101.739 29.5431 101.069 29.4916 101.12 30.162C101.172 30.9355 101.894 31.0386 101.894 31.0386C103.492 31.0386 103.595 31.709 103.699 32.4826C103.699 32.4826 103.853 42.5385 103.544 43.4151C103.375 43.8924 102.886 44.0945 102.459 44.2712C102.101 44.419 101.786 44.549 101.739 44.8075C101.687 45.2716 101.842 45.4779 102.1 45.6326C102.358 45.7357 102.977 45.7357 102.977 45.7357H108.907C108.907 45.7357 110.248 45.6842 110.609 45.5294C110.815 45.4779 110.97 45.22 110.97 44.8591C110.97 44.3824 110.761 44.3229 110.326 44.1985C110.148 44.148 109.934 44.0867 109.681 43.9824C108.752 43.6214 108.752 42.6416 108.752 42.6416V39.4443C108.752 39.4443 111.589 39.4959 113.703 39.1865C115.817 38.8771 118.654 37.691 118.654 33.8233C118.654 29.9557 113.755 29.5431 113.755 29.5431ZM111.176 37.1237C109.577 37.2785 109.01 37.2785 108.752 36.7112C108.725 36.2267 108.713 35.3628 108.699 34.4569V34.4568V34.4567V34.4566V34.4564V34.4562V34.4559C108.687 33.6266 108.674 32.7622 108.649 32.1216C108.649 31.7606 108.701 31.5543 108.804 31.3996C108.907 31.2449 109.165 31.1418 109.371 31.1418C109.887 31.1418 110.557 31.1418 111.279 31.1933C112.723 31.2965 113.548 32.8951 113.445 34.4422C113.445 35.6283 112.826 36.969 111.176 37.1237ZM157.382 38.3094C158.413 40.9394 157.124 44.4461 153.205 45.3227C149.668 46.1087 146.427 45.3049 145.485 45.0713L145.485 45.0713L145.485 45.0712C145.314 45.029 145.219 45.0054 145.211 45.0133C145.049 44.9758 144.855 44.9686 144.646 44.9608C143.992 44.9366 143.18 44.9065 142.633 43.9304C141.911 42.6412 141.189 40.5784 142.066 39.908C142.066 39.908 142.633 39.3923 143.407 40.3206C143.473 40.4042 143.539 40.4893 143.607 40.5753C144.33 41.4979 145.14 42.5305 146.037 43.0022C147.016 43.5178 150.626 44.0851 151.142 42.7443C151.606 41.5067 151.142 40.6816 148.512 40.0112C145.882 39.2892 142.272 37.7421 142.066 34.4933C141.911 31.7602 144.025 29.749 146.759 29.3364C148.508 29.0723 150.533 29.4211 151.952 29.6657C152.75 29.8032 153.357 29.9078 153.617 29.8521C153.906 29.7903 154.145 29.6956 154.367 29.6074C154.702 29.4748 154.999 29.357 155.37 29.388C156.092 29.4396 157.124 30.3162 157.227 32.0696C157.33 33.8229 157.072 34.0808 155.938 34.1323C155.317 34.1605 154.728 33.5105 154.127 32.848C153.629 32.2987 153.123 31.7409 152.586 31.5539C151.554 31.2445 148.976 30.471 148.563 32.3274C148.202 34.0292 149.285 34.4417 151.039 34.8543C152.792 35.3184 156.608 36.4014 157.382 38.3094ZM184.107 35.9376C183.9 35.9376 182.663 35.7313 182.663 35.7313V35.2156C182.663 35.2156 184.622 34.6484 185.138 34.9062C185.138 34.9062 184.468 33.9264 183.333 34.3905C183.088 34.4907 182.875 34.5596 182.686 34.6206C181.998 34.8425 181.634 34.9599 181.27 36.0923L182.611 36.5048C182.611 36.481 182.975 36.358 183.346 36.2326C183.777 36.0867 184.218 35.9376 184.107 35.9376ZM180.084 37.5361C180.239 37.5361 181.116 39.5473 181.116 39.5473C181.116 39.5473 181.116 40.1146 181.167 40.3724C180.703 40.1146 179.723 39.702 179.723 39.702L178.383 39.3926C178.383 39.3926 180.239 39.702 180.187 39.1348C180.136 38.9285 180.033 38.6191 179.878 38.3097C179.62 38.6707 178.383 38.6191 178.383 38.6191L179.62 37.794C179.517 37.5877 179.414 37.433 179.414 37.433C179.414 37.433 177.918 36.9173 177.867 37.6909C177.815 38.4644 177.145 37.1752 177.145 37.1752L178.589 36.3501L180.6 36.5048C180.6 36.5048 180.187 37.3814 180.084 37.5361ZM181.219 40.4239C181.27 40.527 181.322 40.6302 181.425 40.6302C181.58 40.6302 181.477 40.527 181.219 40.4239ZM185.551 33.3589C185.551 33.3589 185.86 33.7714 186.015 34.0808C186.17 34.3903 185.241 34.3387 185.241 34.3387L184.571 33.1526L185.551 33.3589ZM186.943 36.2466H187.407L187.458 34.6996L186.943 35.4731L186.479 34.6996L186.943 36.2466ZM185.757 39.0312H183.642L186.427 38.7734L186.685 39.8563C186.685 39.8563 185.963 40.1657 185.963 39.8563C185.963 39.5469 185.757 39.0312 185.757 39.0312ZM184.107 40.9395L183.849 40.6816L183.127 40.991L183.539 39.9081L183.333 40.3206C183.127 40.7332 181.786 40.8879 181.786 40.8879L182.817 41.0942L181.58 41.6098L182.817 42.3318L182.663 41.7645L184.107 40.9395ZM173.741 37.4333L173.741 37.4125L173.741 37.3817C173.741 32.3279 178.228 28.254 183.746 28.254C189.263 28.254 193.75 32.3279 193.75 37.3817L193.75 37.405L193.75 37.4333C193.75 42.487 189.263 46.561 183.746 46.561C178.228 46.561 173.741 42.487 173.741 37.4333ZM187.304 30.0074C186.737 29.8011 186.169 29.6464 185.757 29.5433C186.272 29.6464 186.788 29.8011 187.304 30.0074ZM184.777 44.1372C184.777 44.1372 184.983 44.9108 185.86 45.2718C188.081 44.775 189.987 43.5331 191.26 41.8652C192.182 40.5936 192.719 39.0719 192.719 37.4332C192.719 35.2398 191.757 33.2559 190.196 31.8009C189.873 31.8085 189.616 31.9591 189.573 32.4311C189.553 32.8784 189.741 33.7265 189.947 34.6593C190.265 36.0925 190.628 37.7259 190.346 38.4131C189.882 39.5476 189.057 39.3929 189.057 39.3929L188.902 37.949L188.232 38.6194L188.077 36.6082C188.077 36.6082 188.387 36.8661 188.593 36.1441C188.799 35.4221 188.645 34.597 188.645 34.597C188.645 34.597 189.212 33.3594 188.232 33.05C187.291 32.7526 187.016 33.5029 186.996 33.562C187.023 33.4791 187.497 32.0113 187.046 31.7608C186.582 31.5029 185.344 31.3482 185.344 31.3482C185.344 31.3482 185.963 30.2137 185.035 29.4402C184.66 29.3932 184.284 29.3463 183.909 29.3382L183.861 29.3376L183.829 29.3373L183.784 29.337C180.644 29.341 177.916 30.7839 176.32 32.9468L176.474 33.2047C176.474 33.2047 176.99 34.958 177.764 35.4221L176.681 35.68L175.649 34.1329C175.134 35.1643 174.824 36.2988 174.824 37.4849C174.824 41.1978 177.712 44.3951 181.58 45.2718C181.631 44.9108 181.58 44.3951 181.219 44.2404C181.008 44.1524 180.766 44.1605 180.532 44.1684C180.08 44.1835 179.653 44.1978 179.517 43.5184L179.311 42.487C179.311 42.487 177.918 42.0229 177.712 40.3727C177.605 39.5138 177.288 39.06 177.03 38.6914C176.793 38.3519 176.607 38.0847 176.681 37.6396C176.681 37.6396 180.548 42.6933 181.992 43.1059C182.302 43.209 182.56 43.2606 182.714 43.2606C182.766 42.7965 182.869 42.3323 182.869 42.3323C182.869 42.3323 184.777 41.8682 184.983 41.1463L184.777 41.8682L183.952 42.5386L183.024 42.5902L183.178 43.1059C183.746 43.3637 184.983 43.7763 185.86 43.209C186.994 42.4355 187.665 41.8167 188.232 40.1149C188.232 40.1149 187.768 42.4355 187.252 43.0027C186.737 43.57 186.272 44.4982 186.272 44.4982L185.86 43.4669C185.86 43.4669 184.829 43.3121 184.777 44.1372ZM154.054 11.6512C151.388 12.4192 150.278 15.726 150.278 15.726L152.689 15.7047C153.137 13.6353 157.02 12.334 158.855 12.846C160.689 13.358 164.337 15.4487 166.748 18.1367C169.159 20.8247 172.615 22.7661 172.615 22.7661C175.943 24.8354 180.807 24.0461 182.3 22.7661C182.3 22.7661 185.159 21.166 184.945 19.7154L182.492 20.0354C181.041 22.7874 176.583 22.2327 174.023 21.2727C171.73 20.4131 169.763 18.5958 168.351 17.2908L168.348 17.2884C168.184 17.1368 168.027 16.9921 167.879 16.8567C166.449 15.5553 163.59 13.1659 163.59 13.1659C159.558 10.3072 156.721 10.8832 154.054 11.6512ZM184.895 16.0912C183.37 16.1075 181.281 16.1297 180.636 16.2806C179.633 16.5153 171.591 16.878 171.591 16.878L173.532 14.7446C173.532 14.7446 175.921 14.5314 177.329 14.4673C177.59 14.4555 177.915 14.4363 178.274 14.4151L178.274 14.4151C179.856 14.3218 182.106 14.1892 182.471 14.4673C182.471 14.4673 182.748 14.2113 184.049 14.3393L186.161 14.4673L189.745 14.3393C189.745 14.3393 190.791 14.5527 191.452 15.278C191.452 15.278 191.388 15.3846 190.3 15.4913C189.831 15.5374 189.222 15.643 188.596 15.7516L188.596 15.7517C187.771 15.8948 186.917 16.0431 186.311 16.0673C186.009 16.0794 185.496 16.0848 184.895 16.0912L184.895 16.0912ZM168.711 16.9633C168.711 16.9633 172.017 13.3792 172.785 12.4405C173.553 11.5019 175.751 9.75253 178.247 9.53922C180.743 9.32591 184.305 9.90191 185.265 14.0406L183.025 13.9552C183.025 13.9552 182.385 11.6512 180.295 11.1819L180.15 11.1493C178.153 10.6993 177.075 10.4563 174.471 13.1232C171.804 15.8539 169.863 18.1366 169.863 18.1366L168.589 17.0893L168.711 16.9633ZM174.114 21.006L171.41 19.39C172.297 18.4463 175.491 18.2341 177.367 18.1096C177.622 18.0926 177.852 18.0773 178.05 18.062C179.318 17.9635 181.327 18.0072 182.491 18.0325C182.839 18.0401 183.111 18.046 183.266 18.046C183.4 18.046 183.568 18.0435 183.755 18.0406C184.504 18.0292 185.566 18.0129 186.066 18.1366C186.69 18.2913 186.914 17.982 186.914 17.982L189.394 17.87C189.57 18.334 188.258 19.006 187.97 19.134C187.682 19.262 186.514 19.39 186.514 19.39L183.746 19.566C183.746 19.566 177.218 20.398 176.05 20.462C174.882 20.526 174.114 21.006 174.114 21.006ZM183.378 17.7899H185.794C185.794 17.7899 185.698 16.8373 185.506 16.4619H183.378V17.7899ZM152.433 17.7524C152.433 17.7524 152.049 17.5177 151.164 17.6244C151.164 17.6244 150.087 17.7098 149.895 17.7524V19.3097C149.895 19.3097 151.713 19.4137 152.113 19.1177L152.433 17.7524ZM142.151 20.0777C142.151 20.0777 143.004 19.843 144.241 19.8644C144.241 19.8644 145.841 19.5871 146.716 19.5871C146.972 19.5871 147.366 19.5926 147.807 19.5987C148.872 19.6136 150.215 19.6324 150.577 19.5871C150.803 19.559 151.238 19.5287 151.71 19.496L151.71 19.496C152.311 19.4543 152.971 19.4086 153.329 19.3578C153.969 19.2672 157.511 19.2458 158.535 19.2458C158.689 19.2458 158.9 19.2375 159.152 19.2276L159.152 19.2276C160.573 19.1718 163.331 19.0634 165.028 20.0778C165.028 20.0778 163.196 22.2518 161.958 22.4011C161.958 22.4011 161.521 21.8058 159.281 21.6991C158.804 21.6764 158.239 21.6459 157.615 21.6121L157.615 21.6121L157.614 21.6121L157.613 21.6121L157.613 21.6121L157.613 21.6121C155.31 21.4877 152.199 21.3197 149.681 21.3364C149.051 21.3406 148.475 21.3528 147.945 21.3639C145.787 21.4095 144.383 21.4391 143.047 20.8519C143.047 20.8519 141.852 20.3977 142.151 20.0777ZM150.929 21.6541C150.439 21.6541 150.172 21.8061 150.172 21.8061C150.62 22.8515 151.943 25.3688 155.633 26.4995C159.324 27.6302 162.545 25.3902 164.167 24.0392C165.788 22.6881 168.241 20.1208 168.241 20.1208L166.897 18.8408C166.897 18.8408 165.276 20.4195 165.027 20.7608C164.779 21.1021 162.076 23.0008 162.076 23.0008C161.015 23.9907 158.385 24.2168 156.316 24.2381C154.677 24.255 154.055 23.536 153.677 23.0984C153.577 22.9834 153.494 22.8878 153.415 22.8301C153.031 22.5528 152.668 21.5714 152.668 21.5714C152.668 21.5714 151.42 21.6541 150.929 21.6541ZM169.358 21.2512L171.826 22.8242C171.826 22.8242 170.78 24.3872 170.738 25.7738C170.718 26.4037 170.738 26.9059 170.772 27.7463C170.813 28.7561 170.873 30.2542 170.908 33.0486C170.908 33.0486 171.335 38.9793 171.186 40.2806C171.07 41.2879 171.287 44.4428 171.41 46.2424C171.446 46.7676 171.475 47.1774 171.484 47.3847L171.489 47.493C171.539 48.5119 171.672 51.2494 170.439 52.4621C170.439 52.4621 169.97 53.2728 169.671 53.1661C169.46 53.0906 169.494 52.4174 169.532 51.6675V51.6673C169.548 51.3571 169.564 51.0337 169.564 50.7341C169.564 50.2172 169.513 49.3363 169.462 48.4478C169.412 47.5759 169.361 46.6968 169.358 46.1473C169.355 45.6369 169.299 44.693 169.241 43.7249C169.174 42.5888 169.105 41.4194 169.116 40.878C169.138 39.8753 168.924 34.8619 168.818 33.8593C168.756 33.2788 168.694 31.5186 168.641 29.9943V29.994C168.602 28.8854 168.567 27.9016 168.54 27.5872C168.476 26.8405 168.298 22.4671 169.358 21.2512ZM166.446 22.6058L163.762 25.1552C163.762 25.1552 164.402 28.1205 164.53 28.8885C164.65 29.6088 164.507 32.1307 164.454 33.0747C164.45 33.1372 164.447 33.1928 164.444 33.2405C164.402 34.0085 164.274 36.5045 164.231 37.4859C164.198 38.2322 163.969 40.2365 163.832 41.4262C163.789 41.801 163.756 42.095 163.74 42.2433C163.676 42.8619 163.399 47.598 163.399 48.43C163.399 48.878 163.331 49.7406 163.261 50.6213C163.202 51.3759 163.141 52.1437 163.122 52.6753C163.079 53.8273 163.89 56.2806 164.316 56.6006C164.743 56.9206 164.722 56.6006 164.722 56.6006L165.66 44.59L166.441 35.4592C166.441 35.4592 166.791 29.4859 166.812 28.3979C166.823 27.8376 166.761 27.2207 166.697 26.5968C166.638 26.0091 166.578 25.4153 166.578 24.8565C166.578 23.7045 166.446 22.6058 166.446 22.6058Z" fill="#0A5896"/>
<path d="M128.091 12.5991V21.7298H127.35V12.5991H128.091Z" fill="#0A5896"/>
<path d="M124.521 20.5758V17.2588C124.521 16.9536 124.455 16.6901 124.322 16.4682C124.189 16.2462 123.994 16.0758 123.736 15.9569C123.479 15.8381 123.161 15.7786 122.783 15.7786C122.434 15.7786 122.123 15.8381 121.849 15.9569C121.579 16.0719 121.365 16.2284 121.207 16.4266C121.053 16.6207 120.976 16.8367 120.976 17.0745L120.229 17.0686C120.229 16.8268 120.291 16.593 120.416 16.3671C120.54 16.1412 120.717 15.9391 120.945 15.7608C121.174 15.5824 121.446 15.4418 121.761 15.3387C122.081 15.2317 122.432 15.1782 122.814 15.1782C123.296 15.1782 123.719 15.2555 124.085 15.4101C124.455 15.5646 124.743 15.7964 124.951 16.1056C125.158 16.4147 125.262 16.803 125.262 17.2707V20.3796C125.262 20.6016 125.279 20.8314 125.312 21.0692C125.349 21.307 125.401 21.5031 125.468 21.6577V21.729H124.677C124.627 21.5864 124.587 21.408 124.558 21.194C124.533 20.9761 124.521 20.77 124.521 20.5758ZM124.695 17.984L124.708 18.5309H123.244C122.862 18.5309 122.519 18.5646 122.216 18.632C121.917 18.6954 121.664 18.7905 121.456 18.9173C121.248 19.0401 121.089 19.1888 120.976 19.3631C120.868 19.5375 120.814 19.7356 120.814 19.9576C120.814 20.1874 120.875 20.3975 120.995 20.5877C121.12 20.7779 121.294 20.9305 121.518 21.0454C121.747 21.1564 122.017 21.2119 122.328 21.2119C122.743 21.2119 123.109 21.1385 123.425 20.9919C123.744 20.8453 124.008 20.6531 124.216 20.4153C124.423 20.1775 124.562 19.9179 124.633 19.6366L124.957 20.0467C124.903 20.2449 124.803 20.449 124.658 20.659C124.517 20.8651 124.332 21.0593 124.104 21.2416C123.875 21.4199 123.605 21.5665 123.294 21.6815C122.986 21.7924 122.638 21.8479 122.247 21.8479C121.807 21.8479 121.423 21.7687 121.095 21.6101C120.771 21.4516 120.517 21.2356 120.335 20.9622C120.156 20.6848 120.067 20.3717 120.067 20.023C120.067 19.7059 120.137 19.4226 120.279 19.1729C120.42 18.9193 120.623 18.7053 120.889 18.5309C121.159 18.3526 121.483 18.2178 121.861 18.1267C122.243 18.0316 122.671 17.984 123.144 17.984H124.695Z" fill="#0A5896"/>
<path d="M117.726 20.2436V15.2979H118.473V21.7298H117.757L117.726 20.2436ZM117.863 19.0548L118.249 19.0429C118.249 19.4471 118.199 19.8196 118.099 20.1604C118 20.5012 117.844 20.7985 117.632 21.0521C117.42 21.3057 117.146 21.5019 116.81 21.6406C116.474 21.7793 116.069 21.8486 115.595 21.8486C115.267 21.8486 114.966 21.8051 114.692 21.7179C114.422 21.6267 114.189 21.4841 113.994 21.2899C113.799 21.0957 113.648 20.844 113.54 20.5349C113.436 20.2258 113.384 19.8513 113.384 19.4114V15.2979H114.125V19.4233C114.125 19.7681 114.165 20.0554 114.243 20.2853C114.327 20.5151 114.439 20.6994 114.58 20.8381C114.725 20.9768 114.891 21.0759 115.078 21.1353C115.265 21.1948 115.467 21.2245 115.682 21.2245C116.231 21.2245 116.663 21.1234 116.978 20.9213C117.298 20.7192 117.524 20.4537 117.657 20.1248C117.794 19.7919 117.863 19.4352 117.863 19.0548Z" fill="#0A5896"/>
<path d="M110.98 20.0883C110.98 19.914 110.934 19.7416 110.843 19.5712C110.751 19.4008 110.575 19.2442 110.313 19.1016C110.056 18.9589 109.676 18.838 109.173 18.739C108.8 18.6597 108.465 18.5705 108.17 18.4715C107.88 18.3724 107.635 18.2535 107.435 18.1148C107.236 17.9761 107.084 17.8096 106.981 17.6155C106.877 17.4213 106.825 17.1914 106.825 16.9259C106.825 16.6881 106.879 16.4642 106.987 16.2542C107.099 16.0402 107.257 15.8539 107.46 15.6954C107.668 15.5329 107.917 15.4061 108.208 15.3149C108.503 15.2238 108.833 15.1782 109.198 15.1782C109.717 15.1782 110.162 15.2634 110.531 15.4338C110.905 15.6003 111.19 15.8282 111.385 16.1174C111.584 16.4067 111.684 16.7337 111.684 17.0983H110.943C110.943 16.8764 110.874 16.6663 110.737 16.4682C110.604 16.27 110.407 16.1075 110.145 15.9807C109.888 15.8539 109.572 15.7905 109.198 15.7905C108.812 15.7905 108.498 15.846 108.258 15.9569C108.017 16.0679 107.84 16.2086 107.728 16.379C107.62 16.5494 107.566 16.7258 107.566 16.9081C107.566 17.0507 107.589 17.1815 107.635 17.3004C107.685 17.4153 107.772 17.5223 107.896 17.6214C108.025 17.7205 108.208 17.8136 108.445 17.9008C108.681 17.988 108.989 18.0732 109.366 18.1564C109.911 18.2713 110.355 18.412 110.7 18.5785C111.048 18.7409 111.306 18.943 111.472 19.1848C111.638 19.4226 111.721 19.7119 111.721 20.0527C111.721 20.3182 111.663 20.5619 111.547 20.7839C111.431 21.0018 111.262 21.1901 111.042 21.3486C110.826 21.5071 110.565 21.6299 110.257 21.7171C109.954 21.8043 109.614 21.8479 109.236 21.8479C108.667 21.8479 108.185 21.7587 107.79 21.5804C107.4 21.3981 107.103 21.1603 106.9 20.8671C106.7 20.5699 106.601 20.2548 106.601 19.9219H107.342C107.367 20.2548 107.477 20.5183 107.672 20.7125C107.867 20.9027 108.106 21.0375 108.388 21.1167C108.675 21.196 108.957 21.2356 109.236 21.2356C109.618 21.2356 109.938 21.1821 110.195 21.0751C110.452 20.9681 110.648 20.8274 110.781 20.6531C110.913 20.4787 110.98 20.2905 110.98 20.0883Z" fill="#0A5896"/>
<path d="M100.669 16.6703V21.729H99.9272V15.2971H100.637L100.669 16.6703ZM100.5 18.1148L100.17 17.9365C100.195 17.556 100.276 17.1993 100.413 16.8665C100.55 16.5336 100.735 16.2403 100.968 15.9867C101.204 15.733 101.48 15.5349 101.796 15.3922C102.116 15.2496 102.469 15.1782 102.855 15.1782C103.191 15.1782 103.493 15.2218 103.758 15.309C104.024 15.3962 104.251 15.5349 104.437 15.7251C104.624 15.9153 104.765 16.1591 104.861 16.4563C104.961 16.7535 105.01 17.1161 105.01 17.5441V21.729H104.263V17.5382C104.263 17.0943 104.199 16.7476 104.07 16.4979C103.941 16.2443 103.758 16.0639 103.522 15.9569C103.285 15.8499 103.005 15.7964 102.681 15.7964C102.324 15.7964 102.01 15.8717 101.74 16.0223C101.474 16.169 101.25 16.3612 101.067 16.5989C100.889 16.8328 100.752 17.0844 100.656 17.3539C100.561 17.6194 100.509 17.873 100.5 18.1148Z" fill="#0A5896"/>
<path d="M95.929 21.8479C95.4888 21.8479 95.0839 21.7706 94.7143 21.6161C94.3488 21.4615 94.029 21.2436 93.7549 20.9622C93.485 20.6808 93.2753 20.3479 93.1257 19.9635C92.9804 19.5751 92.9077 19.1511 92.9077 18.6914V18.4358C92.9077 17.9404 92.9845 17.4926 93.1382 17.0923C93.2919 16.6921 93.5037 16.3493 93.7736 16.0639C94.0436 15.7786 94.3509 15.5606 94.6956 15.4101C95.0444 15.2555 95.4099 15.1782 95.792 15.1782C96.2197 15.1782 96.5997 15.2515 96.932 15.3982C97.2642 15.5408 97.5424 15.7449 97.7667 16.0104C97.9951 16.272 98.1675 16.5831 98.2837 16.9437C98.4 17.3004 98.4582 17.6947 98.4582 18.1267V18.5606H93.3562V17.9543H97.7169V17.8711C97.7086 17.5104 97.6317 17.1736 97.4864 16.8605C97.3452 16.5435 97.1334 16.2859 96.851 16.0877C96.5686 15.8896 96.2156 15.7905 95.792 15.7905C95.4763 15.7905 95.1856 15.8539 94.9198 15.9807C94.6582 16.1075 94.4319 16.2898 94.2408 16.5276C94.0539 16.7614 93.9086 17.0408 93.8048 17.3658C93.7051 17.6868 93.6553 18.0435 93.6553 18.4358V18.6914C93.6553 19.0481 93.7092 19.381 93.8172 19.6901C93.9293 19.9952 94.0872 20.2647 94.2907 20.4985C94.4983 20.7323 94.7433 20.9146 95.0257 21.0454C95.3081 21.1762 95.6196 21.2416 95.9602 21.2416C96.3588 21.2416 96.7118 21.1722 97.0192 21.0335C97.3265 20.8909 97.6027 20.6669 97.8477 20.3618L98.3149 20.7066C98.1695 20.9126 97.9868 21.1029 97.7667 21.2772C97.5507 21.4516 97.2912 21.5903 96.988 21.6934C96.6849 21.7964 96.3318 21.8479 95.929 21.8479Z" fill="#0A5896"/>
<path d="M82.7153 16.6287V21.729H81.9678V15.2971H82.6842L82.7153 16.6287ZM82.5783 18.1148L82.2169 17.9365C82.2419 17.556 82.3166 17.1993 82.4412 16.8665C82.57 16.5336 82.7485 16.2403 82.9769 15.9867C83.2054 15.733 83.4795 15.5349 83.7992 15.3922C84.119 15.2496 84.4824 15.1782 84.8894 15.1782C85.2175 15.1782 85.5144 15.2218 85.7802 15.309C86.0502 15.3922 86.2786 15.525 86.4655 15.7073C86.6565 15.8856 86.8039 16.1194 86.9077 16.4087C87.0116 16.698 87.0635 17.0448 87.0635 17.449V21.729H86.3222V17.4728C86.3222 17.0448 86.2516 16.7099 86.1104 16.4682C85.9733 16.2264 85.7802 16.054 85.531 15.951C85.286 15.848 85.0015 15.7964 84.6776 15.7964C84.2955 15.7964 83.9716 15.8717 83.7058 16.0223C83.4442 16.169 83.2303 16.3612 83.0642 16.5989C82.9022 16.8328 82.7818 17.0844 82.7029 17.3539C82.6239 17.6194 82.5824 17.873 82.5783 18.1148ZM87.0573 17.556L86.5589 17.5679C86.5797 17.2548 86.6544 16.9556 86.7832 16.6703C86.9161 16.3849 87.0967 16.1313 87.3251 15.9094C87.5535 15.6835 87.8256 15.5052 88.1412 15.3744C88.461 15.2436 88.8202 15.1782 89.2189 15.1782C89.5677 15.1782 89.8792 15.2238 90.1533 15.3149C90.4274 15.4021 90.6579 15.5428 90.8448 15.737C91.0358 15.9272 91.1812 16.1709 91.2808 16.4682C91.3805 16.7654 91.4303 17.1221 91.4303 17.5382V21.729H90.6828V17.5322C90.6828 17.0765 90.6122 16.7238 90.471 16.4741C90.334 16.2205 90.1429 16.0441 89.8979 15.9451C89.6529 15.846 89.3663 15.7964 89.0382 15.7964C88.7143 15.8004 88.4298 15.8579 88.1848 15.9688C87.9398 16.0758 87.7342 16.2185 87.5681 16.3968C87.4061 16.5712 87.2815 16.7595 87.1943 16.9616C87.1112 17.1637 87.0656 17.3618 87.0573 17.556Z" fill="#0A5896"/>
<path d="M76.1557 20.5758V17.2588C76.1557 16.9536 76.0893 16.6901 75.9564 16.4682C75.8235 16.2462 75.6283 16.0758 75.3708 15.9569C75.1133 15.8381 74.7956 15.7786 74.4177 15.7786C74.0689 15.7786 73.7574 15.8381 73.4833 15.9569C73.2133 16.0719 72.9995 16.2284 72.8417 16.4266C72.688 16.6207 72.6112 16.8367 72.6112 17.0745L71.8636 17.0686C71.8636 16.8268 71.9259 16.593 72.0505 16.3671C72.1751 16.1412 72.3516 15.9391 72.58 15.7608C72.8084 15.5824 73.0804 15.4418 73.3961 15.3387C73.7159 15.2317 74.0668 15.1782 74.4489 15.1782C74.9306 15.1782 75.3542 15.2555 75.7197 15.4101C76.0893 15.5646 76.3779 15.7964 76.5856 16.1056C76.7932 16.4147 76.897 16.803 76.897 17.2707V20.3796C76.897 20.6016 76.9137 20.8314 76.9469 21.0692C76.9843 21.307 77.0362 21.5031 77.1026 21.6577V21.729H76.3115C76.2616 21.5864 76.2222 21.408 76.1931 21.194C76.1682 20.9761 76.1557 20.77 76.1557 20.5758ZM76.3302 17.984L76.3426 18.5309H74.8787C74.4966 18.5309 74.154 18.5646 73.8508 18.632C73.5518 18.6954 73.2985 18.7905 73.0908 18.9173C72.8832 19.0401 72.7233 19.1888 72.6112 19.3631C72.5032 19.5375 72.4492 19.7356 72.4492 19.9576C72.4492 20.1874 72.5094 20.3975 72.6299 20.5877C72.7544 20.7779 72.9289 20.9305 73.1531 21.0454C73.3815 21.1564 73.6515 21.2119 73.963 21.2119C74.3783 21.2119 74.7437 21.1385 75.0593 20.9919C75.3791 20.8453 75.6428 20.6531 75.8505 20.4153C76.0581 20.1775 76.1973 19.9179 76.2679 19.6366L76.5918 20.0467C76.5378 20.2449 76.4381 20.449 76.2928 20.659C76.1516 20.8651 75.9668 21.0593 75.7384 21.2416C75.5099 21.4199 75.24 21.5665 74.9285 21.6815C74.6212 21.7924 74.2724 21.8479 73.882 21.8479C73.4418 21.8479 73.0576 21.7687 72.7295 21.6101C72.4056 21.4516 72.1523 21.2356 71.9695 20.9622C71.7909 20.6848 71.7017 20.3717 71.7017 20.023C71.7017 19.7059 71.7723 19.4226 71.9135 19.1729C72.0547 18.9193 72.2582 18.7053 72.524 18.5309C72.7939 18.3526 73.1178 18.2178 73.4957 18.1267C73.8778 18.0316 74.3056 17.984 74.779 17.984H76.3302Z" fill="#0A5896"/>
<path d="M70.494 15.2976V15.8801H67.1177V15.2976H70.494ZM68.3573 13.645H69.0986V20.1661C69.0986 20.4633 69.1402 20.6872 69.2232 20.8378C69.3063 20.9884 69.4143 21.0895 69.5472 21.141C69.6801 21.1925 69.8233 21.2183 69.977 21.2183C70.0891 21.2183 70.1971 21.2123 70.3009 21.2004C70.4048 21.1846 70.4982 21.1687 70.5813 21.1529L70.6124 21.7533C70.521 21.781 70.4027 21.8028 70.2573 21.8187C70.112 21.8385 69.9666 21.8484 69.8213 21.8484C69.5347 21.8484 69.2814 21.7988 69.0613 21.6998C68.8412 21.5967 68.6688 21.4224 68.5442 21.1767C68.4196 20.927 68.3573 20.5882 68.3573 20.1602V13.645Z" fill="#0A5896"/>
<path d="M65.5165 20.0883C65.5165 19.914 65.4708 19.7416 65.3795 19.5712C65.2881 19.4008 65.1116 19.2442 64.85 19.1016C64.5925 18.9589 64.2125 18.838 63.71 18.739C63.3362 18.6597 63.0019 18.5705 62.707 18.4715C62.4163 18.3724 62.1713 18.2535 61.972 18.1148C61.7726 17.9761 61.621 17.8096 61.5172 17.6155C61.4134 17.4213 61.3615 17.1914 61.3615 16.9259C61.3615 16.6881 61.4155 16.4642 61.5234 16.2542C61.6356 16.0402 61.7934 15.8539 61.9969 15.6954C62.2045 15.5329 62.4537 15.4061 62.7444 15.3149C63.0393 15.2238 63.3694 15.1782 63.7349 15.1782C64.254 15.1782 64.6984 15.2634 65.068 15.4338C65.4418 15.6003 65.7263 15.8282 65.9214 16.1174C66.1208 16.4067 66.2205 16.7337 66.2205 17.0983H65.4791C65.4791 16.8764 65.4106 16.6663 65.2736 16.4682C65.1407 16.27 64.9434 16.1075 64.6818 15.9807C64.4243 15.8539 64.1087 15.7905 63.7349 15.7905C63.3487 15.7905 63.0351 15.846 62.7942 15.9569C62.5534 16.0679 62.3769 16.2086 62.2647 16.379C62.1568 16.5494 62.1028 16.7258 62.1028 16.9081C62.1028 17.0507 62.1256 17.1815 62.1713 17.3004C62.2211 17.4153 62.3083 17.5223 62.4329 17.6214C62.5617 17.7205 62.7444 17.8136 62.9811 17.9008C63.2179 17.988 63.5252 18.0732 63.9031 18.1564C64.4471 18.2713 64.8915 18.412 65.2362 18.5785C65.5851 18.7409 65.8425 18.943 66.0087 19.1848C66.1748 19.4226 66.2578 19.7119 66.2578 20.0527C66.2578 20.3182 66.1997 20.5619 66.0834 20.7839C65.9671 21.0018 65.7989 21.1901 65.5788 21.3486C65.3629 21.5071 65.1012 21.6299 64.7939 21.7171C64.4907 21.8043 64.1502 21.8479 63.7723 21.8479C63.2033 21.8479 62.7216 21.7587 62.327 21.5804C61.9367 21.3981 61.6397 21.1603 61.4362 20.8671C61.2369 20.5699 61.1372 20.2548 61.1372 19.9219H61.8785C61.9034 20.2548 62.0135 20.5183 62.2087 20.7125C62.4039 20.9027 62.6427 21.0375 62.9251 21.1167C63.2116 21.196 63.494 21.2356 63.7723 21.2356C64.1543 21.2356 64.4741 21.1821 64.7316 21.0751C64.9891 20.9681 65.1843 20.8274 65.3172 20.6531C65.4501 20.4787 65.5165 20.2905 65.5165 20.0883Z" fill="#0A5896"/>
<path d="M59.4429 15.2967V21.7286H58.7016V15.2967H59.4429ZM58.5708 13.4361C58.5708 13.3014 58.6144 13.1884 58.7016 13.0973C58.793 13.0021 58.9176 12.9546 59.0754 12.9546C59.2332 12.9546 59.3578 13.0021 59.4492 13.0973C59.5447 13.1884 59.5924 13.3014 59.5924 13.4361C59.5924 13.5669 59.5447 13.6798 59.4492 13.7749C59.3578 13.8661 59.2332 13.9116 59.0754 13.9116C58.9176 13.9116 58.793 13.8661 58.7016 13.7749C58.6144 13.6798 58.5708 13.5669 58.5708 13.4361Z" fill="#0A5896"/>
<path d="M54.4585 21.0461L56.6201 15.2979H57.3863L54.8634 21.7298H54.3214L54.4585 21.0461ZM52.5024 15.2979L54.689 21.064L54.8073 21.7298H54.2591L51.73 15.2979H52.5024Z" fill="#0A5896"/>
<path d="M48.5604 21.8479C48.1201 21.8479 47.7152 21.7706 47.3456 21.6161C46.9801 21.4615 46.6604 21.2436 46.3863 20.9622C46.1163 20.6808 45.9066 20.3479 45.7571 19.9635C45.6117 19.5751 45.5391 19.1511 45.5391 18.6914V18.4358C45.5391 17.9404 45.6159 17.4926 45.7696 17.0923C45.9232 16.6921 46.135 16.3493 46.405 16.0639C46.6749 15.7786 46.9822 15.5606 47.3269 15.4101C47.6758 15.2555 48.0412 15.1782 48.4233 15.1782C48.8511 15.1782 49.2311 15.2515 49.5633 15.3982C49.8955 15.5408 50.1738 15.7449 50.3981 16.0104C50.6265 16.272 50.7988 16.5831 50.9151 16.9437C51.0314 17.3004 51.0895 17.6947 51.0895 18.1267V18.5606H45.9876V17.9543H50.3482V17.8711C50.3399 17.5104 50.2631 17.1736 50.1177 16.8605C49.9765 16.5435 49.7647 16.2859 49.4823 16.0877C49.1999 15.8896 48.8469 15.7905 48.4233 15.7905C48.1077 15.7905 47.817 15.8539 47.5512 15.9807C47.2895 16.1075 47.0632 16.2898 46.8722 16.5276C46.6853 16.7614 46.5399 17.0408 46.4361 17.3658C46.3364 17.6868 46.2866 18.0435 46.2866 18.4358V18.6914C46.2866 19.0481 46.3406 19.381 46.4486 19.6901C46.5607 19.9952 46.7185 20.2647 46.922 20.4985C47.1297 20.7323 47.3747 20.9146 47.6571 21.0454C47.9395 21.1762 48.251 21.2416 48.5915 21.2416C48.9902 21.2416 49.3432 21.1722 49.6505 21.0335C49.9578 20.8909 50.234 20.6669 50.479 20.3618L50.9462 20.7066C50.8009 20.9126 50.6182 21.1029 50.3981 21.2772C50.1821 21.4516 49.9225 21.5903 49.6194 21.6934C49.3162 21.7964 48.9632 21.8479 48.5604 21.8479Z" fill="#0A5896"/>
<path d="M38 13.0737H40.9465C41.5736 13.0737 42.1177 13.1708 42.5787 13.365C43.0396 13.5592 43.3947 13.8465 43.6439 14.227C43.8972 14.6034 44.0239 15.0671 44.0239 15.618C44.0239 16.0261 43.9325 16.3967 43.7498 16.7296C43.5712 17.0625 43.3241 17.3419 43.0085 17.5677C42.6929 17.7897 42.3274 17.9422 41.9121 18.0255L41.6442 18.1206H38.4984L38.4859 17.4964H41.121C41.5944 17.4964 41.9889 17.4092 42.3046 17.2349C42.6202 17.0605 42.8569 16.8306 43.0147 16.5453C43.1767 16.256 43.2577 15.9469 43.2577 15.618C43.2577 15.2256 43.1684 14.8868 42.9898 14.6015C42.8154 14.3122 42.5558 14.0902 42.2111 13.9357C41.8664 13.7811 41.4449 13.7038 40.9465 13.7038H38.7662V21.7289H38V13.0737ZM43.6003 21.7289L41.2518 17.859L42.0741 17.8531L44.4164 21.6516V21.7289H43.6003Z" fill="#0A5896"/>
</g>
<rect x="0.25" y="0.25" width="249.5" height="56.5" stroke="#0A5896" stroke-width="0.5"/>
<defs>
<clipPath id="clip0_729_109">
<rect width="250" height="57" fill="white"/>
</clipPath>
</defs>
</svg>
