<svg width="250" height="57" viewBox="0 0 250 57" fill="none" xmlns="http://www.w3.org/2000/svg">
<g clip-path="url(#clip0_545_31)">
<rect x="0.25" y="0.25" width="249.5" height="56.5" rx="1.75" stroke="#0A5896" stroke-opacity="0.2" stroke-width="0.5"/>
<path d="M51.8318 23.4397L51.4347 23.2576C51.4347 23.2576 52.626 22.2099 52.9511 22.1376C53.2037 22.2459 53.5647 22.2459 53.5647 22.2459L53.1676 21.7401C53.5647 21.6679 55.8032 21.3066 56.6696 21.7401C57.3196 22.1376 56.877 22.4849 56.877 22.4849L57.8249 22.2098C57.8389 22.2212 57.8547 22.2382 57.8714 22.2594C57.8888 22.2012 57.9062 22.1395 57.9245 22.0729C57.9542 21.9731 57.9743 21.8647 58.0006 21.7566C58.0133 21.7026 58.0199 21.648 58.0296 21.5942C58.0389 21.5403 58.0478 21.4871 58.0564 21.4358C58.0653 21.3322 58.0738 21.2354 58.0805 21.1522C58.0747 20.9847 58.0711 20.8732 58.0711 20.8732C58.0711 20.8732 58.0928 20.9839 58.1255 21.15C58.132 21.2351 58.1395 21.3341 58.1475 21.4404C58.1473 21.4935 58.1471 21.5487 58.1466 21.6044C58.1455 21.6604 58.1476 21.718 58.1437 21.7746C58.1348 21.8876 58.1322 22.0025 58.1184 22.1083C58.1074 22.2146 58.0962 22.314 58.0829 22.3987C58.0717 22.4833 58.059 22.555 58.0502 22.6052C58.047 22.6235 58.0443 22.6379 58.0419 22.6498C58.1562 23.172 57.9858 24.0596 56.4136 24.8942L56.4166 24.9015C56.0195 25.1001 53.6729 26.0395 53.0229 25.5698C53.4562 25.5698 54.5394 25.2085 54.3588 24.8833C54.1844 24.9124 53.9971 24.8884 53.8112 24.8366C53.798 24.8395 53.7843 24.8421 53.7694 24.8463C53.6538 24.8766 53.5062 24.8999 53.3584 24.9171C53.0634 24.9525 52.7702 24.9665 52.7702 24.9665C52.7702 24.9665 53.0522 24.8811 53.3238 24.7767C53.3764 24.7569 53.4277 24.7361 53.4771 24.7154C53.0995 24.5486 52.7696 24.3152 52.6259 24.233C52.5018 24.162 52.2449 24.1247 52.0465 24.0846C52.0456 24.0932 52.0446 24.1008 52.0441 24.1105C52.0403 24.1878 52.0423 24.2953 52.0732 24.3974C52.0884 24.4481 52.1072 24.4995 52.1337 24.5427C52.1581 24.5879 52.1881 24.627 52.2174 24.6573C52.2743 24.7208 52.3271 24.7496 52.3251 24.752C52.3267 24.7492 52.2677 24.7385 52.1894 24.6929C52.1497 24.6714 52.1047 24.6405 52.0626 24.6004C52.0183 24.5621 51.9787 24.5124 51.9429 24.4601C51.8703 24.3545 51.8268 24.2318 51.8021 24.138C51.7898 24.0907 51.7824 24.0506 51.7781 24.0211C51.7739 23.9918 51.7729 23.9698 51.7726 23.9725L51.7809 23.9729C51.7802 23.954 51.7942 23.9328 51.8315 23.9078C52.1086 23.7233 54.07 22.535 55.6224 23.1491L56.0355 24.0608L55.7668 23.0484L55.2975 22.7157C53.3121 22.4266 52.0485 23.2937 51.8318 23.4397ZM47.6077 23.5106C47.3551 22.4989 46.4885 21.7402 45.8027 22.1378C45.1167 22.5351 45.3333 25.8588 45.5861 26.3646C45.7665 25.1725 45.9471 22.9325 47.6077 23.5106ZM46.7412 26.3645C46.9578 26.7981 47.2467 27.8096 47.6077 27.8819C47.9688 27.9542 47.2467 26.6897 47.2106 26.3645C47.1745 26.0395 47.9534 24.4671 47.8243 24.3371C47.2826 23.7908 46.5246 25.931 46.7412 26.3645ZM65.6968 61.2641L67.284 70.874L66.3401 71.3834C66.6551 71.2294 66.9696 71.0609 67.284 70.874C56.5975 80.8452 27.3777 71.4038 24.3933 67.6946L24.8265 66.3217C24.8265 66.3217 14.0686 62.5774 13.3378 61.1996L13.2847 61.1839L13.3044 61.1154C13.2989 61.0921 13.2958 61.0691 13.2975 61.0473L13.3238 61.0486L15.8634 52.2038C14.3584 49.5092 13.7789 46.5961 13.7789 46.5961C13.7789 46.5961 12.0655 45.1085 12.1454 43.5078L12 43.4414C15.8624 34.9724 23.227 28.7982 28.1005 24.7129C29.4407 23.5892 30.5984 22.6187 31.412 21.8234L31.4488 21.7875L33.0774 21.109L33.3951 20.7287C33.3951 20.7287 34.069 15.6224 34.2615 14.6593C34.4541 13.6958 34.8392 11.3355 34.9356 10.5164C35.0317 9.69778 37.8238 7.91531 37.8238 7.91531C37.8238 7.91531 40.5676 4.10981 42.8782 4.06174C43.6966 2.71284 45.0926 1.79763 45.7185 2.0385C46.3441 2.27937 45.4776 4.16342 45.4776 4.16342C45.4776 4.16342 45.5982 4.14576 45.7815 4.12935C46.681 3.57999 47.5759 4.03425 47.5339 4.60357C47.412 6.26085 45.2429 7.23501 44.0817 11.9212C43.3219 14.9872 43.215 16.1042 43.4557 16.2006C43.6965 16.2968 45.5924 12.4431 47.9179 12.4914C50.2431 12.5395 49.6655 13.6475 49.6655 13.6475C49.6655 13.6475 46.9216 14.8518 45.622 17.9828C44.3222 21.1138 41.6265 23.6668 41.6265 23.6668C41.6265 23.6668 38.8827 24.8535 38.8827 26.0667L38.3233 26.7577L39.707 25.6997C39.707 25.6997 40.1299 26.7327 37.5997 31.2791L43.1395 32.0828L43.9981 31.4508L45.9121 29.804C45.5139 29.044 44.9875 27.818 44.6176 26.1285C43.9998 23.3032 44.6084 22.0101 45.0261 21.4906C45.3088 21.139 45.6573 20.9454 46.0072 20.9454C46.4073 20.9454 46.8452 21.2299 47.2173 21.5557C47.5266 21.2 47.6076 20.4221 47.6076 20.4221L47.2711 20.4035C47.3757 20.2932 47.5019 20.1507 47.6423 19.9866C47.5827 19.8375 47.4994 19.717 47.4994 19.717C47.4841 19.6776 47.4723 19.6369 47.4626 19.5955L47.3192 19.6172C47.2524 19.1746 47.4314 18.2177 47.435 18.1756C48.1249 16.4897 51.5911 11.6425 57.7044 12.058C63.5835 12.4574 65.6473 19.2355 65.6954 20.7768C65.7373 22.1183 64.8948 25.4042 64.8424 26.4781C65.2006 26.4985 65.3532 26.8837 65.1178 27.8849C64.7023 29.6523 63.0237 30.158 63.132 30.6277C63.2404 31.0974 63.2765 32.687 62.3738 32.9399C61.7798 33.5187 60.8936 35.5106 59.305 37.7448C59.9188 38.6481 59.0885 39.1177 59.0885 39.1177L57.9163 40.1121L62.2295 42.4776C62.2295 42.4776 66.5617 51.1723 67.8135 51.7503C68.7764 53.2917 65.6968 61.2641 65.6968 61.2641ZM44.8119 15.2373C47.516 13.2141 48.1235 14.6476 49.3287 13.3105C47.6199 12.025 45.2611 14.2376 44.8119 15.2373ZM59.8231 53.4611C59.9583 53.5848 60.0958 53.7112 60.2367 53.8418C60.4732 54.0657 60.7175 54.297 60.9658 54.532C61.21 54.7717 61.4639 55.0093 61.7072 55.2581C61.9525 55.5047 62.2 55.7494 62.4345 55.9995C62.5531 56.1237 62.6706 56.2468 62.7866 56.3683C62.9 56.4928 63.012 56.6157 63.1222 56.7367C63.2317 56.8583 63.3396 56.9777 63.4452 57.0945C63.5475 57.2151 63.6474 57.3329 63.7447 57.4474C63.8412 57.563 63.9387 57.6723 64.0265 57.7839C64.1139 57.8962 64.1984 58.0048 64.2791 58.109C64.2974 58.1325 64.315 58.155 64.333 58.1782C64.218 57.3391 64.1251 56.7307 64.0588 56.471C63.8306 55.5758 61.261 52.1461 59.8486 50.1216C59.8479 51.196 59.8399 52.3319 59.8231 53.4611ZM59.7316 57.1473C60.5393 57.6848 61.4777 58.358 62.367 59.1044C62.6438 59.3376 62.9183 59.5751 63.1795 59.8194C63.4433 60.0609 63.6942 60.3088 63.9312 60.5547C64.2392 60.8747 64.5206 61.1946 64.7676 61.504C64.6678 60.7337 64.5747 60.0076 64.4896 59.3562C64.4307 59.2443 64.3516 59.1198 64.2655 58.979C64.2115 58.8911 64.1543 58.7974 64.0939 58.6989C64.0302 58.6015 63.9578 58.5018 63.8852 58.3963C63.8119 58.2911 63.7355 58.1814 63.6567 58.068C63.5767 57.9551 63.4866 57.8429 63.3981 57.7251C63.3088 57.6074 63.2164 57.4869 63.1226 57.3636C63.0246 57.243 62.9243 57.1196 62.8225 56.9943C62.72 56.8693 62.6158 56.7423 62.5105 56.6136C62.4018 56.4874 62.292 56.3593 62.181 56.2305C61.9618 55.9707 61.7288 55.715 61.4979 55.4574C61.2693 55.198 61.0292 54.9486 60.7988 54.6975C60.5637 54.4507 60.3324 54.2076 60.1087 53.9724C60.0108 53.8719 59.9147 53.7739 59.8196 53.6769C59.8008 54.8727 59.7718 56.056 59.7316 57.1473ZM54.3806 43.0125C53.6197 42.6818 52.5941 42.2347 51.4094 41.7147C52.7616 45.4792 57.0037 57.1384 59.0523 61.0553C59.0406 59.9982 58.9657 58.4232 58.8613 56.6747C58.1135 56.1531 57.6083 55.8451 57.6083 55.8451C57.6083 55.8451 58.107 56.1156 58.8558 56.5823C58.7758 55.2482 58.6793 53.8173 58.5811 52.44C57.9933 51.867 57.6083 51.5097 57.6083 51.5097C57.6083 51.5097 57.9882 51.8267 58.5739 52.3408C58.4537 50.6607 58.3314 49.067 58.2346 47.8351C57.7651 47.274 55.8965 45.0273 54.3806 43.0125ZM53.6656 31.3141C52.799 31.579 52.5297 31.591 52.4335 32.2173C52.3373 32.8434 51.4459 35.8573 52.6302 36.3696C53.0756 36.5622 53.9256 36.8899 53.8896 36.2878C53.8536 35.6854 54.7563 34.71 56.4168 35.6854C58.0777 36.661 57.9571 35.7216 57.2232 34.8546C56.4891 33.9875 54.3953 33.9875 54.3953 33.9875C55.4422 33.3734 56.7289 32.4702 58.0713 33.0483C58.6914 32.6869 58.0713 32.2895 58.0713 32.2895C58.0713 32.2895 54.5321 31.0492 53.6656 31.3141ZM53.7332 30.4351C54.0942 30.6277 56.8141 31.3502 57.2232 31.0973C56.6216 30.4951 55.057 28.9899 54.9847 28.7972C54.5516 28.9417 53.3724 30.2424 53.7332 30.4351ZM63.9627 21.7583C63.9567 21.7613 64.0514 21.7907 64.1135 21.9344C64.1743 22.0784 64.1548 22.3111 64.0975 22.5929C64.0439 22.8765 63.9529 23.2196 63.93 23.63C63.9203 23.8346 63.9298 24.0571 63.9856 24.2851C63.9996 24.3419 64.0158 24.3994 64.0361 24.4561L64.0648 24.5359C64.0713 24.5591 64.0789 24.5833 64.0822 24.6038C64.0827 24.6079 64.0843 24.6129 64.0845 24.6166C64.0989 24.7146 64.0953 24.8399 64.0862 24.9583C64.0768 25.0642 64.0627 25.1729 64.0469 25.2824C63.9907 25.6751 63.8989 26.0899 63.7963 26.52C63.6634 27.0708 63.5052 27.6482 63.3339 28.2422C63.2482 28.5387 63.1576 28.8402 63.0573 29.1384C62.9579 29.4388 62.8401 29.7299 62.7187 30.0323C62.4774 30.6329 62.2199 31.2408 61.9417 31.8389C61.6636 32.4368 61.3664 33.0262 61.0504 33.5921C60.9715 33.7336 60.8919 33.8743 60.8087 34.0111C60.728 34.1501 60.6434 34.2853 60.5574 34.4181C60.3883 34.6859 60.204 34.9377 60.022 35.1913C59.6588 35.6957 59.3147 36.1881 58.9783 36.6449C58.8089 36.8723 58.6421 37.092 58.4618 37.2833C58.2823 37.475 58.0795 37.6266 57.8487 37.6963C57.6199 37.7662 57.3791 37.7886 57.1578 37.8014C56.934 37.8124 56.7205 37.8035 56.5214 37.782C56.1226 37.7401 55.7828 37.6431 55.5125 37.5425C55.2428 37.4397 55.0401 37.3345 54.907 37.2555C54.7732 37.1768 54.7045 37.1307 54.7045 37.1307C54.7045 37.1307 54.7719 37.1789 54.9033 37.2616C55.0345 37.3448 55.2342 37.4564 55.5024 37.5681C55.7715 37.6775 56.111 37.7858 56.5141 37.8406C56.7154 37.8685 56.9319 37.8841 57.1606 37.8798C57.3899 37.8733 57.6284 37.8591 57.8775 37.7908C58.128 37.7231 58.357 37.5606 58.5473 37.367C58.7398 37.1733 58.9143 36.9554 59.091 36.7312C59.4422 36.2807 59.799 35.7982 60.1751 35.3047C60.3619 35.0587 60.5578 34.8059 60.7375 34.5378C60.8292 34.405 60.9186 34.2698 61.0042 34.1317C61.0928 33.9949 61.1766 33.8549 61.2608 33.714C61.5969 33.1505 61.911 32.5633 62.2108 31.9693C62.5107 31.3751 62.7943 30.7729 63.0484 30.167C63.1718 29.865 63.2928 29.5544 63.3922 29.2471C63.4877 28.9366 63.5698 28.6307 63.6488 28.3285C63.773 27.8462 63.8796 27.3745 63.9718 26.9174C63.9952 26.8016 64.0181 26.6858 64.0397 26.5721C64.1426 26.0089 64.2322 25.4746 64.2508 24.9668C64.2524 24.8376 64.2534 24.7175 64.2255 24.5814C64.219 24.5442 64.2079 24.5197 64.1983 24.4913L64.1636 24.4081C64.1424 24.3565 64.1247 24.3042 64.1091 24.2518C64.1063 24.2423 64.1046 24.2327 64.1019 24.2232C64.0459 24.0229 64.0264 23.8221 64.0262 23.6327C64.0285 23.2345 64.1018 22.8879 64.1415 22.6003C64.1853 22.3148 64.194 22.0752 64.124 21.9299C64.0523 21.7852 63.9567 21.762 63.9627 21.7583ZM59.3893 14.4664C60.6709 14.6904 61.8997 15.5257 62.853 16.5058C62.8516 16.5041 62.8491 16.5017 62.8491 16.5017C62.8491 16.5017 62.6618 13.803 58.919 12.707C52.1621 11.2632 48.3453 16.8887 47.6284 18.1744C47.6243 18.2214 47.6059 18.4492 47.5935 18.7192C48.5709 16.5746 53.9434 13.5148 59.3893 14.4664ZM47.9326 18.8139C47.7339 19.1718 47.7908 19.4891 47.8818 19.7025C48.6102 18.8259 49.5864 17.5594 50.1418 16.8311C49.1079 17.4482 48.1886 18.3527 47.9326 18.8139ZM46.5231 29.7166C47.3743 30.0985 47.978 28.7033 47.8388 28.3414C47.8388 28.3414 48.022 28.2157 48.041 28.5323C48.0739 29.077 48.0519 30.049 47.9502 30.7686C48.7795 34.3586 51.1523 35.9201 52.0247 36.2878C51.3027 35.3725 52.1689 31.7596 52.3133 31.3743C52.3133 31.3743 51.5649 31.9924 51.4349 31.6753C50.5804 29.5918 55.2258 26.6175 55.8034 26.5813C55.8034 26.5813 56.4553 26.4967 56.0679 26.7981C55.2987 27.3966 54.7204 28.2913 55.3942 28.4358C56.0679 28.5803 57.2234 29.4955 57.464 29.7845C57.7046 30.0734 58.5092 29.5994 58.7879 29.2064C59.1817 28.6514 59.0768 27.3519 59.0768 27.3519C59.0768 27.3519 59.0768 26.7981 59.4137 27.0629C59.7506 27.3279 60.8579 30.194 61.1949 30.2662C61.5319 30.3384 62.4512 29.2108 62.2299 28.508C61.9652 27.6679 59.7747 26.3972 59.0769 26.3644C59.0769 26.3644 59.0593 27.0147 58.8754 27.1954C58.5834 26.7619 58.403 23.5104 58.6557 22.7877C58.9085 22.0652 60.569 22.103 60.8219 22.0298C60.9991 21.9786 62.8611 21.6609 63.8718 20.9651C64.2438 19.5242 62.8797 17.0192 62.8797 17.0192C62.8797 17.0192 62.0855 16.1418 59.6576 15.1737C56.182 14.3674 52.7619 15.4446 52.7619 15.4446C52.7619 15.4446 51.7661 15.6824 51.4351 16.2666C51.0935 16.3509 50.7403 16.5012 50.3944 16.6874C50.0872 17.4092 49.3736 18.9249 48.0171 20.4031C48.0312 20.6701 47.9329 21.1999 47.7126 21.6155C48.3539 20.9642 49.4238 19.353 49.6659 18.8137C49.6659 18.8137 49.5306 20.4122 48.0684 22.4625L48.0572 22.4528C48.0602 22.4571 48.0649 22.4631 48.0679 22.4667L47.6106 22.8196C47.1951 22.2812 46.4231 21.5232 46.0077 21.5232C45.8411 21.5232 45.6427 21.6463 45.4767 21.8527C45.1924 22.206 44.5949 23.3181 45.1825 26.0046C45.5696 27.7762 46.1395 29.0192 46.5231 29.7166ZM44.5485 31.7397C44.9951 32.4791 46.7208 35.1112 49.6759 37.012C48.7223 34.8833 48.113 32.6346 47.818 31.3868C47.7602 31.5583 47.6903 31.6657 47.6077 31.6754C47.3047 31.7106 46.8908 31.2696 46.5508 30.6717L46.4734 30.7305C46.4598 30.7122 46.3564 30.5744 46.201 30.318L44.5485 31.7397ZM43.305 32.6786C43.786 33.4847 45.2748 35.4587 49.0819 37.3163C46.2445 35.4113 44.5945 32.9369 44.0897 32.101L43.305 32.6786ZM38.9685 32.062C40.7168 33.4379 45.9133 37.3678 51.3392 39.9365C50.9354 39.3966 50.5661 38.7913 50.2305 38.1549C45.0035 35.9455 43.3486 33.4123 42.9466 32.639L38.9685 32.062ZM37.2949 31.8191C37.1894 32.0031 37.0806 32.1912 36.9659 32.3859C36.8555 32.6148 36.736 32.866 36.6078 33.1369C38.927 34.3755 46.993 38.6649 50.9691 40.533L50.9851 40.5274C50.9859 40.5296 50.9883 40.5366 50.9907 40.5433C51.6212 40.8392 52.1472 41.0733 52.5298 41.224C52.2575 40.9946 51.9969 40.7329 51.7485 40.4456C45.612 37.6508 39.6415 32.9758 38.4005 31.9794L37.2949 31.8191ZM31.4214 25.642C31.2411 25.0572 30.6992 25.064 30.6992 25.064C30.6992 25.064 30.6212 25.6962 30.8212 26.5085C31.0625 27.4895 31.7097 28.7338 33.3949 29.4474C32.5943 28.8059 31.8987 27.9152 31.5767 27.0258C31.4051 26.5514 31.3378 26.0774 31.4214 25.642ZM30.6101 28.2338C30.7693 28.8155 31.0256 29.4059 31.4214 29.9736C33.4207 32.842 35.84 31.2771 35.8402 31.2769C35.9589 31.0097 36.0252 30.7648 36.0413 30.5674C36.0251 30.6715 35.8309 31.4115 33.5876 30.6998C32.4356 30.3346 31.3891 29.2575 30.6101 28.2338ZM35.8605 34.7264C35.4972 35.5016 35.0943 36.3624 34.6606 37.2812L36.7552 37.5524L35.8605 34.7264ZM33.848 38.9913C35.529 40.8508 37.2383 43.2009 38.7936 46.9068L39.2679 45.4884L37.6741 40.4546L34.1322 38.3954C34.0388 38.5921 33.9437 38.7909 33.848 38.9913ZM37.3585 39.4579L36.9938 38.306L34.5739 37.4643C34.4629 37.6991 34.3503 37.9371 34.2354 38.1784L37.3585 39.4579ZM41.8672 17.0195C41.2896 17.3086 40.026 21.2465 41.091 21.7583C42.1561 22.2702 43.4918 19.5958 43.4918 19.5958C43.4918 19.5958 41.8191 19.7171 41.8672 17.0195ZM42.445 9.21592C42.445 9.21592 46.3265 4.44818 46.9625 4.41809C46.308 3.82086 44.7556 4.1979 42.445 9.21592ZM38.7383 7.62636L39.8456 7.75887C39.8456 7.75887 41.9034 4.47128 43.4919 4.68801C42.8782 4.06174 39.8864 5.50688 38.7383 7.62636ZM31.6365 24.5911C31.6365 24.5911 33.3058 26.3888 33.3951 25.8756C33.8524 23.2484 35.0438 23.2484 35.0438 23.2484C35.0438 23.2484 36.6733 24.3861 39.8864 23.9801C37.7202 23.7117 34.8632 22.535 35.0078 20.2229C35.1521 17.9108 36.7165 17.2192 36.7165 17.2192C36.7165 17.2192 35.0816 16.3971 35.1802 16.1011C35.2253 15.9656 36.2271 16.363 36.2271 16.363C36.2271 16.363 35.9463 12.2988 36.2833 11.4318C36.6203 10.5646 38.0281 9.21592 39.707 8.686C39.8455 7.75866 36.2681 8.95613 35.6575 10.5406C35.1621 11.8258 34.3398 19.1074 33.8282 20.7286C33.5395 21.6438 31.6365 24.5911 31.6365 24.5911ZM37.4627 12.902C37.6684 13.5252 38.3653 13.6476 38.3653 13.6476C38.3653 13.6476 38.4013 11.0826 38.8707 9.63737C38.8707 9.63737 36.9934 11.48 37.4627 12.902ZM16.4507 45.9458C19.7382 44.3668 26.5774 34.9003 27.774 33.2202C26.3456 28.9976 29.7931 24.7688 30.94 23.667C30.94 23.667 30.9025 23.7525 30.8471 23.9067L30.94 23.667L32.3014 22.0381L31.7789 22.2729C30.9517 23.0765 29.801 24.0414 28.4715 25.1559C23.6795 29.1731 16.4611 35.2277 12.6264 43.4679C13.1389 44.0487 14.151 44.6857 16.4507 45.9458ZM18.5446 61.2641L17.3973 57.9409L15.6399 56.2832L16.4665 53.1899C16.399 53.0896 16.3331 52.9883 16.2687 52.8864L13.9177 61.0728L18.5446 61.2641ZM20.0609 56.3506L19.1583 55.881C18.2855 55.3616 17.5378 54.628 16.9019 53.7981L16.2872 56.0992L18.565 58.2479L20.0609 59.2771V56.3506ZM36.482 51.9764C36.0267 48.5184 33.6055 44.1315 32.3582 42.0553C29.5885 47.6493 26.3316 53.5959 24.0082 55.3752C27.3779 55.2186 29.3275 49.5105 29.3275 49.5105C29.383 52.4447 29.0145 57.2898 27.5212 59.0721C30.603 56.9286 31.614 44.8258 31.614 44.8258C31.614 44.8258 35.1521 48.7157 35.8059 52.7414C36.053 52.455 36.2771 52.2018 36.482 51.9764ZM37.4211 51.0101L38.3701 48.1729C36.8353 44.22 35.1278 41.7519 33.4413 39.8381C33.2358 40.2639 33.0262 40.6955 32.8131 41.1312C33.9015 42.8845 36.5063 47.3665 37.2324 51.1904C37.299 51.1251 37.3614 51.0656 37.4211 51.0101ZM59.056 72.5151L58.7237 67.4057L56.2364 67.2371L56.0687 64.8046L58.4508 64.8769L58.3471 61.9866L59.0116 62.0267C57.2307 59.7547 51.8893 44.8166 50.6778 41.3927C48.5355 40.4495 45.9892 39.3173 43.5847 38.2197C44.0034 39.1528 44.5804 40.4292 45.1689 41.7016C45.7345 42.925 46.3107 44.1439 46.7648 45.0464C46.9921 45.4978 47.189 45.8702 47.3391 46.1234C47.4141 46.2499 47.4777 46.3469 47.5273 46.4079C47.5522 46.4385 47.5736 46.4601 47.5908 46.4707C47.6086 46.4825 47.6204 46.4753 47.6199 46.476C47.6205 46.4752 47.609 46.4832 47.5901 46.4722C47.5717 46.4624 47.5487 46.4416 47.5223 46.4124C47.4691 46.3535 47.4002 46.2597 47.3183 46.1367C47.1539 45.8908 46.937 45.5287 46.6852 45.0894C46.1823 44.2108 45.5411 43.0231 44.9102 41.8303C44.11 40.3182 43.3261 38.7984 42.859 37.8877C40.6383 36.868 38.592 35.8993 37.171 35.1671L40.18 44.5188C41.2532 45.2934 43.7244 47.0845 46.1716 48.9079C47.7978 50.1194 49.4133 51.3459 50.6015 52.2961C51.1955 52.771 51.6829 53.1771 52.0123 53.4745C52.1778 53.6223 52.3015 53.7456 52.3847 53.8303C52.4635 53.9193 52.5057 53.9665 52.5057 53.9665C52.5057 53.9665 52.4621 53.9209 52.3801 53.8349C52.2939 53.7533 52.1663 53.6348 51.9958 53.4933C51.6566 53.2081 51.1564 52.8203 50.5465 52.3675C49.3267 51.4616 47.6703 50.2943 46.0032 49.1429C43.7332 47.574 41.4458 46.0333 40.2165 45.2094L39.8057 47.7414L46.9624 57.796L39.6553 48.6695L38.9051 53.2944C38.978 53.424 39.076 53.5961 39.2009 53.8094C39.4924 54.307 39.92 55.0145 40.4624 55.8469C41.0034 56.6799 41.6583 57.638 42.3977 58.6378C42.7653 59.1396 43.1584 59.648 43.5622 60.1613C43.9697 60.6718 44.3902 61.1855 44.8238 61.6881C45.041 61.9389 45.257 62.1913 45.48 62.4356C45.5906 62.5584 45.701 62.6812 45.811 62.8037C45.9233 62.9238 46.0353 63.0438 46.1472 63.1631C46.3686 63.4039 46.5952 63.6356 46.8195 63.8648C47.0412 64.0966 47.2696 64.3156 47.4919 64.5342C47.9384 64.9686 48.3807 65.3787 48.8105 65.755C49.0224 65.9473 49.2363 66.1246 49.4427 66.2974C49.5458 66.3835 49.6472 66.4687 49.7467 66.5521C49.8484 66.6329 49.9481 66.7121 50.046 66.7896C50.4342 67.1038 50.8044 67.3733 51.1314 67.6145C51.461 67.8517 51.7562 68.0474 51.9959 68.2144C52.4888 68.5277 52.7703 68.7065 52.7703 68.7065C52.7703 68.7065 52.479 68.5431 51.9697 68.2566C51.7211 68.1026 51.4146 67.9226 51.0714 67.7028C50.7308 67.4787 50.3443 67.2284 49.9374 66.9338C49.835 66.8615 49.7304 66.7874 49.6238 66.7116C49.5192 66.6333 49.4127 66.5532 49.3044 66.472C49.0874 66.3097 48.8627 66.1427 48.639 65.9611C48.1858 65.6055 47.7182 65.2169 47.2443 64.8032C47.0085 64.5956 46.7659 64.3865 46.5298 64.1651C46.2911 63.9464 46.0496 63.7246 45.8133 63.4941C45.6941 63.3795 45.5743 63.2648 45.4543 63.1492C45.3366 63.0316 45.2185 62.9138 45.1001 62.7957C44.8614 62.5609 44.6294 62.3185 44.3963 62.0766C43.9305 61.5923 43.4776 61.0959 43.0374 60.6021C42.6007 60.1051 42.175 59.6118 41.7755 59.1241C40.9718 58.1524 40.2554 57.2172 39.6603 56.4007C39.2613 55.8555 38.9182 55.365 38.6363 54.9509L38.344 56.7526C39.256 61.4724 42.1357 68.2095 52.5056 70.4403C54.3971 71.3407 56.6428 72.206 59.056 72.5151ZM59.7023 73.0658C59.6822 72.5431 59.6503 72.0211 59.6223 71.499C59.596 70.9766 59.5585 70.4553 59.526 69.9337L59.4134 68.3695L59.2903 66.8064L59.2808 66.6855L59.1577 66.6797L58.0879 66.6285L57.1388 66.589C57.1021 66.227 57.063 65.8648 57.0222 65.5033C57.6581 65.5296 58.2943 65.5497 58.9303 65.5708L59.0406 65.5743L59.0333 65.4687C58.9974 64.965 58.966 64.4609 58.9241 63.9577C58.884 63.4541 58.8476 62.9503 58.7998 62.4472C58.797 62.9526 58.806 63.4577 58.8109 63.9626C58.814 64.4312 58.8261 64.8997 58.8353 65.3679C58.1849 65.3229 57.5346 65.2766 56.884 65.2385L56.7358 65.2297L56.7484 65.3807C56.7859 65.8339 56.8269 66.2866 56.8711 66.7389L56.8829 66.8606L57.0053 66.8663L58.0753 66.9153L59.0249 66.953L59.1652 68.3914L59.328 69.951C59.3871 70.4705 59.4415 70.9905 59.5069 71.5092C59.5711 72.0281 59.6305 72.5474 59.7023 73.0658ZM64.9037 62.5455C64.8505 62.455 64.7973 62.3602 64.733 62.2658C64.451 61.821 64.0783 61.3242 63.64 60.8214C63.421 60.5702 63.1879 60.3151 62.9407 60.0652C62.6964 59.8126 62.438 59.5654 62.1761 59.3211C61.3594 58.5627 60.4877 57.8652 59.726 57.2983C59.6534 59.1998 59.5455 60.8018 59.3948 61.67C59.4904 61.8287 59.578 61.9602 59.6585 62.0658L60.4425 62.113L60.6203 65.1045L62.9516 65.3106V67.6947H61.002L61.3616 72.6261C62.9833 72.5673 64.6516 72.2052 66.3155 71.396C65.8056 69.1726 65.3093 65.6345 64.9037 62.5455Z" fill="#0A5896"/>
<path d="M76.4453 18.3164V17.9961C76.4453 17.1159 76.6888 16.4297 77.1758 15.9375C77.6628 15.4427 78.2734 15.1953 79.0078 15.1953C79.7448 15.1953 80.3086 15.3841 80.6992 15.7617C81.0898 16.1367 81.3112 16.5951 81.3633 17.1367L81.3672 17.1758H80.4609L80.457 17.1367C80.4284 16.8346 80.2982 16.5586 80.0664 16.3086C79.8372 16.0586 79.4844 15.9336 79.0078 15.9336C78.526 15.9336 78.1302 16.1172 77.8203 16.4844C77.513 16.8516 77.3594 17.3555 77.3594 17.9961V18.3164C77.3594 18.9596 77.513 19.4648 77.8203 19.832C78.1302 20.1966 78.526 20.3789 79.0078 20.3789C79.487 20.3789 79.8411 20.2539 80.0703 20.0039C80.3021 19.7539 80.431 19.4779 80.457 19.1758L80.4609 19.1367H81.3672L81.3633 19.1758C81.3138 19.7148 81.0924 20.1732 80.6992 20.5508C80.306 20.9284 79.7422 21.1172 79.0078 21.1172C78.2734 21.1172 77.6628 20.8711 77.1758 20.3789C76.6888 19.8841 76.4453 19.1966 76.4453 18.3164ZM82.187 21L84.3706 15.2812H85.2769L87.4605 21H86.5073L84.9761 16.8086C84.937 16.7122 84.9045 16.6198 84.8784 16.5312C84.8524 16.4427 84.8277 16.3516 84.8042 16.2578H84.7613C84.7404 16.3516 84.7157 16.4427 84.687 16.5312C84.661 16.6198 84.6297 16.7122 84.5933 16.8086L83.0503 21H82.187ZM83.1519 19.5859L83.4136 18.8711L86.1909 18.8789L86.4566 19.5938L83.1519 19.5859ZM88.6006 21V15.3125H90.6241C91.2933 15.3125 91.809 15.4688 92.1709 15.7812C92.5355 16.0938 92.7178 16.5104 92.7178 17.0312C92.7178 17.5521 92.5355 17.9727 92.1709 18.293C91.809 18.6133 91.2933 18.7734 90.6241 18.7734H89.4991V21H88.6006ZM89.4991 18.0625H90.6241C91.0694 18.0625 91.3793 17.9622 91.5538 17.7617C91.7308 17.5612 91.8194 17.3177 91.8194 17.0312C91.8194 16.7422 91.7321 16.5013 91.5577 16.3086C91.3832 16.1159 91.072 16.0195 90.6241 16.0195H89.4991V18.0625ZM91.9561 21L90.5381 18.375L91.4795 18.2773L92.9834 21H91.9561ZM93.4088 16.0234V15.3125H98.1236V16.0234H96.2134V21H95.3189V16.0234H93.4088ZM98.377 21L100.561 15.2812H101.467L103.65 21H102.697L101.166 16.8086C101.127 16.7122 101.094 16.6198 101.068 16.5312C101.042 16.4427 101.018 16.3516 100.994 16.2578H100.951C100.93 16.3516 100.906 16.4427 100.877 16.5312C100.851 16.6198 100.82 16.7122 100.783 16.8086L99.2403 21H98.377ZM99.3419 19.5859L99.6036 18.8711L102.381 18.8789L102.647 19.5938L99.3419 19.5859ZM107.224 21V15.3125H111.095V16.0234H108.122V17.707H110.72V18.4258H108.122V20.2891H111.134V21H107.224ZM112.548 21V15.3125H113.512L116.071 19.2148C116.123 19.293 116.173 19.3815 116.219 19.4805C116.269 19.5794 116.309 19.6628 116.34 19.7305H116.38C116.372 19.6497 116.365 19.5417 116.36 19.4062C116.355 19.2682 116.352 19.1589 116.352 19.0781V15.3125H117.18V21H116.212L113.633 17.0781C113.581 17 113.533 16.9219 113.489 16.8438C113.447 16.7656 113.411 16.6927 113.38 16.625H113.344C113.35 16.7031 113.355 16.7917 113.36 16.8906C113.365 16.987 113.368 17.0755 113.368 17.1562V21H112.548ZM118.77 18.3164V17.9961C118.77 17.1159 119.013 16.4297 119.5 15.9375C119.987 15.4427 120.598 15.1953 121.332 15.1953C122.069 15.1953 122.633 15.3841 123.024 15.7617C123.414 16.1367 123.636 16.5951 123.688 17.1367L123.692 17.1758H122.785L122.781 17.1367C122.753 16.8346 122.623 16.5586 122.391 16.3086C122.162 16.0586 121.809 15.9336 121.332 15.9336C120.85 15.9336 120.455 16.1172 120.145 16.4844C119.837 16.8516 119.684 17.3555 119.684 17.9961V18.3164C119.684 18.9596 119.837 19.4648 120.145 19.832C120.455 20.1966 120.85 20.3789 121.332 20.3789C121.811 20.3789 122.166 20.2539 122.395 20.0039C122.626 19.7539 122.755 19.4779 122.781 19.1758L122.785 19.1367H123.692L123.688 19.1758C123.638 19.7148 123.417 20.1732 123.024 20.5508C122.63 20.9284 122.067 21.1172 121.332 21.1172C120.598 21.1172 119.987 20.8711 119.5 20.3789C119.013 19.8841 118.77 19.1966 118.77 18.3164ZM125.195 21V15.3125H126.093V21H125.195ZM125.097 14.25L125.965 12.8594L126.726 13.25L125.652 14.5156L125.097 14.25ZM127.706 18.3164V17.9961C127.706 17.1159 127.95 16.4297 128.437 15.9375C128.924 15.4427 129.534 15.1953 130.269 15.1953C131.006 15.1953 131.57 15.3841 131.96 15.7617C132.351 16.1367 132.572 16.5951 132.624 17.1367L132.628 17.1758H131.722L131.718 17.1367C131.689 16.8346 131.559 16.5586 131.327 16.3086C131.098 16.0586 130.745 15.9336 130.269 15.9336C129.787 15.9336 129.391 16.1172 129.081 16.4844C128.774 16.8516 128.62 17.3555 128.62 17.9961V18.3164C128.62 18.9596 128.774 19.4648 129.081 19.832C129.391 20.1966 129.787 20.3789 130.269 20.3789C130.748 20.3789 131.102 20.2539 131.331 20.0039C131.563 19.7539 131.692 19.4779 131.718 19.1758L131.722 19.1367H132.628L132.624 19.1758C132.575 19.7148 132.353 20.1732 131.96 20.5508C131.567 20.9284 131.003 21.1172 130.269 21.1172C129.534 21.1172 128.924 20.8711 128.437 20.3789C127.95 19.8841 127.706 19.1966 127.706 18.3164ZM134.116 21V15.3125H135.014V20.2891H137.85V21H134.116ZM139.104 21V15.3125H140.002V21H139.104ZM141.615 18.3164V17.9961C141.615 17.1159 141.858 16.4297 142.345 15.9375C142.832 15.4427 143.443 15.1953 144.177 15.1953C144.914 15.1953 145.478 15.3841 145.869 15.7617C146.26 16.1367 146.481 16.5951 146.533 17.1367L146.537 17.1758H145.631L145.627 17.1367C145.598 16.8346 145.468 16.5586 145.236 16.3086C145.007 16.0586 144.654 15.9336 144.177 15.9336C143.696 15.9336 143.3 16.1172 142.99 16.4844C142.683 16.8516 142.529 17.3555 142.529 17.9961V18.3164C142.529 18.9596 142.683 19.4648 142.99 19.832C143.3 20.1966 143.696 20.3789 144.177 20.3789C144.657 20.3789 145.011 20.2539 145.24 20.0039C145.472 19.7539 145.601 19.4779 145.627 19.1758L145.631 19.1367H146.537L146.533 19.1758C146.483 19.7148 146.262 20.1732 145.869 20.5508C145.476 20.9284 144.912 21.1172 144.177 21.1172C143.443 21.1172 142.832 20.8711 142.345 20.3789C141.858 19.8841 141.615 19.1966 141.615 18.3164ZM147.357 21L149.54 15.2812H150.447L152.63 21H151.677L150.146 16.8086C150.107 16.7122 150.074 16.6198 150.048 16.5312C150.022 16.4427 149.997 16.3516 149.974 16.2578H149.931C149.91 16.3516 149.885 16.4427 149.857 16.5312C149.831 16.6198 149.799 16.7122 149.763 16.8086L148.22 21H147.357ZM148.322 19.5859L148.583 18.8711L151.361 18.8789L151.626 19.5938L148.322 19.5859ZM153.79 20.5547C153.79 20.4089 153.838 20.2839 153.934 20.1797C154.033 20.0755 154.174 20.0234 154.356 20.0234C154.539 20.0234 154.678 20.0755 154.774 20.1797C154.873 20.2839 154.923 20.4089 154.923 20.5547C154.923 20.7005 154.873 20.8255 154.774 20.9297C154.678 21.0339 154.539 21.0859 154.356 21.0859C154.174 21.0859 154.033 21.0339 153.934 20.9297C153.838 20.8255 153.79 20.7005 153.79 20.5547ZM153.79 17.1836C153.79 17.0378 153.838 16.9128 153.934 16.8086C154.033 16.7044 154.174 16.6523 154.356 16.6523C154.539 16.6523 154.678 16.7044 154.774 16.8086C154.873 16.9128 154.923 17.0378 154.923 17.1836C154.923 17.332 154.873 17.4583 154.774 17.5625C154.678 17.6667 154.539 17.7188 154.356 17.7188C154.174 17.7188 154.033 17.6667 153.934 17.5625C153.838 17.4583 153.79 17.332 153.79 17.1836Z" fill="#545F6F"/>
<path d="M80.114 45H78.134V29.292H86.912V31.03H80.114V36.596H86.494V38.334H80.114V45ZM95.4382 32.988C95.6582 32.988 95.8929 33.0027 96.1422 33.032C96.4062 33.0467 96.6335 33.076 96.8242 33.12L96.5822 34.902C96.3915 34.858 96.1789 34.8213 95.9442 34.792C95.7242 34.7627 95.5115 34.748 95.3062 34.748C94.8515 34.748 94.4189 34.8433 94.0082 35.034C93.5975 35.2247 93.2309 35.496 92.9082 35.848C92.5855 36.1853 92.3289 36.596 92.1382 37.08C91.9622 37.564 91.8742 38.1067 91.8742 38.708V45H89.9382V33.208H91.5222L91.7422 35.364H91.8302C92.0795 34.924 92.3802 34.528 92.7322 34.176C93.0842 33.8093 93.4875 33.5233 93.9422 33.318C94.3969 33.098 94.8955 32.988 95.4382 32.988ZM103.722 33.01C105.16 33.01 106.223 33.3253 106.912 33.956C107.602 34.5867 107.946 35.5913 107.946 36.97V45H106.538L106.164 43.328H106.076C105.739 43.7533 105.387 44.1127 105.02 44.406C104.668 44.6847 104.258 44.89 103.788 45.022C103.334 45.154 102.776 45.22 102.116 45.22C101.412 45.22 100.774 45.0953 100.202 44.846C99.6451 44.5967 99.2051 44.2153 98.8824 43.702C98.5597 43.174 98.3984 42.514 98.3984 41.722C98.3984 40.5487 98.8604 39.6467 99.7844 39.016C100.708 38.3707 102.131 38.0187 104.052 37.96L106.054 37.894V37.19C106.054 36.2073 105.842 35.5253 105.416 35.144C104.991 34.7627 104.39 34.572 103.612 34.572C102.996 34.572 102.41 34.6673 101.852 34.858C101.295 35.034 100.774 35.2393 100.29 35.474L99.6964 34.022C100.21 33.7433 100.818 33.5087 101.522 33.318C102.226 33.1127 102.96 33.01 103.722 33.01ZM104.294 39.302C102.828 39.3607 101.808 39.5953 101.236 40.006C100.679 40.4167 100.4 40.996 100.4 41.744C100.4 42.404 100.598 42.888 100.994 43.196C101.405 43.504 101.926 43.658 102.556 43.658C103.554 43.658 104.382 43.3867 105.042 42.844C105.702 42.2867 106.032 41.436 106.032 40.292V39.236L104.294 39.302ZM116.186 43.636C116.48 43.636 116.78 43.614 117.088 43.57C117.396 43.5113 117.646 43.4527 117.836 43.394V44.868C117.631 44.9707 117.338 45.0513 116.956 45.11C116.575 45.1833 116.208 45.22 115.856 45.22C115.24 45.22 114.668 45.1173 114.14 44.912C113.627 44.692 113.209 44.318 112.886 43.79C112.564 43.262 112.402 42.5213 112.402 41.568V34.704H110.73V33.78L112.424 33.01L113.194 30.502H114.338V33.208H117.748V34.704H114.338V41.524C114.338 42.2427 114.507 42.778 114.844 43.13C115.196 43.4673 115.644 43.636 116.186 43.636ZM125.412 32.988C126.424 32.988 127.289 33.208 128.008 33.648C128.741 34.088 129.298 34.7113 129.68 35.518C130.076 36.31 130.274 37.2413 130.274 38.312V39.478H122.2C122.229 40.8127 122.566 41.832 123.212 42.536C123.872 43.2253 124.788 43.57 125.962 43.57C126.71 43.57 127.37 43.504 127.942 43.372C128.528 43.2253 129.13 43.02 129.746 42.756V44.45C129.144 44.714 128.55 44.9047 127.964 45.022C127.377 45.154 126.68 45.22 125.874 45.22C124.759 45.22 123.769 44.9927 122.904 44.538C122.053 44.0833 121.386 43.4087 120.902 42.514C120.432 41.6047 120.198 40.4973 120.198 39.192C120.198 37.9013 120.41 36.794 120.836 35.87C121.276 34.946 121.884 34.2347 122.662 33.736C123.454 33.2373 124.37 32.988 125.412 32.988ZM125.39 34.572C124.466 34.572 123.732 34.8727 123.19 35.474C122.662 36.0607 122.346 36.882 122.244 37.938H128.25C128.25 37.2633 128.147 36.6767 127.942 36.178C127.736 35.6793 127.421 35.2907 126.996 35.012C126.585 34.7187 126.05 34.572 125.39 34.572ZM135.872 45H133.936V28.28H135.872V45ZM142.203 45H140.267V28.28H142.203V45ZM148.535 33.208V45H146.599V33.208H148.535ZM147.589 28.786C147.883 28.786 148.139 28.8887 148.359 29.094C148.594 29.2847 148.711 29.5927 148.711 30.018C148.711 30.4287 148.594 30.7367 148.359 30.942C148.139 31.1473 147.883 31.25 147.589 31.25C147.267 31.25 146.995 31.1473 146.775 30.942C146.555 30.7367 146.445 30.4287 146.445 30.018C146.445 29.5927 146.555 29.2847 146.775 29.094C146.995 28.8887 147.267 28.786 147.589 28.786ZM164.542 45H162.562V31.03H157.656V29.292H169.426V31.03H164.542V45ZM180.951 33.208V45H179.367L179.081 43.438H178.993C178.744 43.8487 178.421 44.186 178.025 44.45C177.629 44.714 177.196 44.9047 176.727 45.022C176.258 45.154 175.766 45.22 175.253 45.22C174.314 45.22 173.522 45.0733 172.877 44.78C172.246 44.472 171.77 44.0027 171.447 43.372C171.124 42.7413 170.963 41.9273 170.963 40.93V33.208H172.921V40.798C172.921 41.7367 173.134 42.4407 173.559 42.91C173.984 43.3793 174.644 43.614 175.539 43.614C176.419 43.614 177.108 43.4527 177.607 43.13C178.12 42.7927 178.48 42.3087 178.685 41.678C178.905 41.0327 179.015 40.2553 179.015 39.346V33.208H180.951ZM189.293 43.636C189.586 43.636 189.887 43.614 190.195 43.57C190.503 43.5113 190.752 43.4527 190.943 43.394V44.868C190.737 44.9707 190.444 45.0513 190.063 45.11C189.681 45.1833 189.315 45.22 188.963 45.22C188.347 45.22 187.775 45.1173 187.247 44.912C186.733 44.692 186.315 44.318 185.993 43.79C185.67 43.262 185.509 42.5213 185.509 41.568V34.704H183.837V33.78L185.531 33.01L186.301 30.502H187.445V33.208H190.855V34.704H187.445V41.524C187.445 42.2427 187.613 42.778 187.951 43.13C188.303 43.4673 188.75 43.636 189.293 43.636ZM197.902 43.636C198.195 43.636 198.496 43.614 198.804 43.57C199.112 43.5113 199.361 43.4527 199.552 43.394V44.868C199.346 44.9707 199.053 45.0513 198.672 45.11C198.29 45.1833 197.924 45.22 197.572 45.22C196.956 45.22 196.384 45.1173 195.856 44.912C195.342 44.692 194.924 44.318 194.602 43.79C194.279 43.262 194.118 42.5213 194.118 41.568V34.704H192.446V33.78L194.14 33.01L194.91 30.502H196.054V33.208H199.464V34.704H196.054V41.524C196.054 42.2427 196.222 42.778 196.56 43.13C196.912 43.4673 197.359 43.636 197.902 43.636ZM204.509 33.208V45H202.573V33.208H204.509ZM203.563 28.786C203.856 28.786 204.113 28.8887 204.333 29.094C204.568 29.2847 204.685 29.5927 204.685 30.018C204.685 30.4287 204.568 30.7367 204.333 30.942C204.113 31.1473 203.856 31.25 203.563 31.25C203.24 31.25 202.969 31.1473 202.749 30.942C202.529 30.7367 202.419 30.4287 202.419 30.018C202.419 29.5927 202.529 29.2847 202.749 29.094C202.969 28.8887 203.24 28.786 203.563 28.786Z" fill="#0A5896"/>
<path d="M208.673 51.269C208.524 51.3927 208.356 51.4855 208.17 51.5474C207.986 51.6076 207.764 51.6377 207.504 51.6377H206.974L206.659 53H206.171L207.011 49.3647H207.968C208.189 49.3647 208.372 49.3843 208.517 49.4233C208.662 49.4624 208.781 49.5186 208.874 49.5918C208.97 49.665 209.043 49.7546 209.093 49.8604C209.144 49.9645 209.169 50.0907 209.169 50.2388C209.169 50.4373 209.126 50.6261 209.04 50.8052C208.953 50.9826 208.831 51.1372 208.673 51.269ZM208.651 50.3218C208.651 50.2388 208.638 50.1615 208.61 50.0898C208.582 50.0182 208.539 49.9596 208.48 49.9141C208.41 49.8604 208.327 49.8221 208.231 49.7993C208.137 49.7749 208.013 49.7627 207.86 49.7627H207.409L207.064 51.2446H207.499C207.694 51.2446 207.856 51.2267 207.985 51.1909C208.115 51.1551 208.227 51.0981 208.322 51.02C208.432 50.9272 208.515 50.8231 208.568 50.7075C208.624 50.592 208.651 50.4634 208.651 50.3218ZM211.151 51.562C210.901 51.5718 210.678 51.5913 210.482 51.6206C210.289 51.6483 210.128 51.689 210.001 51.7427C209.87 51.7964 209.77 51.8696 209.701 51.9624C209.633 52.0535 209.599 52.1675 209.599 52.3042C209.599 52.4214 209.639 52.5109 209.718 52.5728C209.798 52.6346 209.922 52.6655 210.089 52.6655C210.237 52.6655 210.388 52.633 210.541 52.5679C210.696 52.5011 210.84 52.4214 210.973 52.3286L211.151 51.562ZM210.885 52.7095C210.841 52.7355 210.781 52.7729 210.705 52.8218C210.63 52.869 210.553 52.9097 210.475 52.9438C210.392 52.9813 210.299 53.0122 210.197 53.0366C210.094 53.0627 209.976 53.0757 209.843 53.0757C209.626 53.0757 209.451 53.013 209.315 52.8877C209.18 52.7607 209.113 52.5955 209.113 52.3921C209.113 52.1756 209.16 51.9933 209.254 51.8452C209.35 51.6955 209.492 51.5734 209.679 51.479C209.863 51.3862 210.084 51.3195 210.343 51.2788C210.604 51.2365 210.9 51.2104 211.232 51.2007C211.242 51.1551 211.25 51.116 211.256 51.0835C211.263 51.0493 211.266 51.0143 211.266 50.9785C211.266 50.9004 211.251 50.8369 211.22 50.7881C211.189 50.7393 211.145 50.7002 211.088 50.6709C211.031 50.6416 210.964 50.6221 210.888 50.6123C210.813 50.6009 210.73 50.5952 210.639 50.5952C210.5 50.5952 210.342 50.618 210.165 50.6636C209.988 50.7075 209.844 50.7515 209.733 50.7954H209.708L209.799 50.3364C209.892 50.312 210.028 50.2843 210.207 50.2534C210.386 50.2225 210.557 50.207 210.722 50.207C211.06 50.207 211.314 50.2599 211.483 50.3657C211.653 50.4715 211.737 50.6392 211.737 50.8687C211.737 50.9126 211.733 50.9598 211.725 51.0103C211.719 51.0591 211.71 51.1055 211.701 51.1494L211.273 53H210.817L210.885 52.7095ZM214.928 51.1348C214.928 51.4049 214.886 51.6589 214.801 51.8965C214.718 52.1341 214.608 52.3359 214.469 52.502C214.329 52.6729 214.167 52.8079 213.981 52.9072C213.795 53.0049 213.598 53.0537 213.388 53.0537C213.241 53.0537 213.106 53.0366 212.982 53.0024C212.86 52.9699 212.749 52.9219 212.648 52.8584L212.384 54.0059H211.925L212.787 50.2729H213.246L213.18 50.5586C213.332 50.4528 213.48 50.3665 213.627 50.2998C213.773 50.2314 213.935 50.1973 214.113 50.1973C214.378 50.1973 214.58 50.2795 214.718 50.4438C214.858 50.6082 214.928 50.8385 214.928 51.1348ZM214.447 51.2227C214.447 51.029 214.405 50.88 214.32 50.7759C214.236 50.6701 214.101 50.6172 213.915 50.6172C213.78 50.6172 213.64 50.6506 213.495 50.7173C213.35 50.784 213.215 50.8597 213.09 50.9443L212.733 52.4897C212.839 52.5467 212.94 52.589 213.036 52.6167C213.132 52.6444 213.249 52.6582 213.385 52.6582C213.553 52.6582 213.703 52.6175 213.837 52.5361C213.972 52.4548 214.083 52.349 214.171 52.2188C214.264 52.082 214.333 51.9299 214.379 51.7622C214.424 51.5946 214.447 51.4147 214.447 51.2227ZM217.27 51.562C217.019 51.5718 216.796 51.5913 216.601 51.6206C216.407 51.6483 216.247 51.689 216.12 51.7427C215.988 51.7964 215.888 51.8696 215.819 51.9624C215.751 52.0535 215.717 52.1675 215.717 52.3042C215.717 52.4214 215.757 52.5109 215.836 52.5728C215.916 52.6346 216.04 52.6655 216.208 52.6655C216.356 52.6655 216.506 52.633 216.659 52.5679C216.814 52.5011 216.958 52.4214 217.091 52.3286L217.27 51.562ZM217.003 52.7095C216.959 52.7355 216.899 52.7729 216.823 52.8218C216.748 52.869 216.671 52.9097 216.593 52.9438C216.51 52.9813 216.417 53.0122 216.315 53.0366C216.212 53.0627 216.094 53.0757 215.961 53.0757C215.744 53.0757 215.569 53.013 215.434 52.8877C215.299 52.7607 215.231 52.5955 215.231 52.3921C215.231 52.1756 215.278 51.9933 215.373 51.8452C215.469 51.6955 215.61 51.5734 215.797 51.479C215.981 51.3862 216.203 51.3195 216.461 51.2788C216.722 51.2365 217.018 51.2104 217.35 51.2007C217.36 51.1551 217.368 51.116 217.375 51.0835C217.381 51.0493 217.384 51.0143 217.384 50.9785C217.384 50.9004 217.369 50.8369 217.338 50.7881C217.307 50.7393 217.263 50.7002 217.206 50.6709C217.149 50.6416 217.082 50.6221 217.006 50.6123C216.931 50.6009 216.848 50.5952 216.757 50.5952C216.618 50.5952 216.461 50.618 216.283 50.6636C216.106 50.7075 215.962 50.7515 215.851 50.7954H215.827L215.917 50.3364C216.01 50.312 216.146 50.2843 216.325 50.2534C216.504 50.2225 216.675 50.207 216.84 50.207C217.178 50.207 217.432 50.2599 217.602 50.3657C217.771 50.4715 217.855 50.6392 217.855 50.8687C217.855 50.9126 217.851 50.9598 217.843 51.0103C217.837 51.0591 217.829 51.1055 217.819 51.1494L217.392 53H216.935L217.003 52.7095ZM223.139 49.7773H221.303L221.056 50.832H222.636L222.541 51.2422H220.963L220.556 53H220.067L220.907 49.3647H223.231L223.139 49.7773ZM225.111 50.7563H225.087C225.022 50.7401 224.961 50.7287 224.904 50.7222C224.848 50.714 224.781 50.71 224.701 50.71C224.548 50.71 224.396 50.745 224.245 50.8149C224.095 50.8833 223.951 50.9663 223.812 51.064L223.373 53H222.909L223.532 50.2729H223.996L223.903 50.6758C224.119 50.5244 224.302 50.4194 224.452 50.3608C224.604 50.3022 224.748 50.2729 224.887 50.2729C224.966 50.2729 225.024 50.2754 225.06 50.2803C225.096 50.2835 225.148 50.2909 225.216 50.3022L225.111 50.7563ZM227.04 51.562C226.789 51.5718 226.566 51.5913 226.371 51.6206C226.177 51.6483 226.017 51.689 225.89 51.7427C225.758 51.7964 225.658 51.8696 225.59 51.9624C225.521 52.0535 225.487 52.1675 225.487 52.3042C225.487 52.4214 225.527 52.5109 225.607 52.5728C225.687 52.6346 225.81 52.6655 225.978 52.6655C226.126 52.6655 226.277 52.633 226.43 52.5679C226.584 52.5011 226.728 52.4214 226.862 52.3286L227.04 51.562ZM226.774 52.7095C226.73 52.7355 226.67 52.7729 226.593 52.8218C226.518 52.869 226.442 52.9097 226.364 52.9438C226.281 52.9813 226.188 53.0122 226.085 53.0366C225.983 53.0627 225.865 53.0757 225.731 53.0757C225.515 53.0757 225.339 53.013 225.204 52.8877C225.069 52.7607 225.001 52.5955 225.001 52.3921C225.001 52.1756 225.049 51.9933 225.143 51.8452C225.239 51.6955 225.381 51.5734 225.568 51.479C225.752 51.3862 225.973 51.3195 226.232 51.2788C226.492 51.2365 226.789 51.2104 227.121 51.2007C227.13 51.1551 227.139 51.116 227.145 51.0835C227.152 51.0493 227.155 51.0143 227.155 50.9785C227.155 50.9004 227.139 50.8369 227.108 50.7881C227.077 50.7393 227.034 50.7002 226.977 50.6709C226.92 50.6416 226.853 50.6221 226.776 50.6123C226.701 50.6009 226.618 50.5952 226.527 50.5952C226.389 50.5952 226.231 50.618 226.054 50.6636C225.876 50.7075 225.732 50.7515 225.622 50.7954H225.597L225.688 50.3364C225.78 50.312 225.916 50.2843 226.095 50.2534C226.274 50.2225 226.446 50.207 226.61 50.207C226.949 50.207 227.203 50.2599 227.372 50.3657C227.541 50.4715 227.626 50.6392 227.626 50.8687C227.626 50.9126 227.622 50.9598 227.614 51.0103C227.607 51.0591 227.599 51.1055 227.589 51.1494L227.162 53H226.706L226.774 52.7095ZM230.778 50.8955C230.778 50.9346 230.774 50.9875 230.766 51.0542C230.759 51.1209 230.749 51.1795 230.736 51.23L230.326 53H229.867L230.226 51.4473C230.246 51.361 230.26 51.2861 230.27 51.2227C230.281 51.1576 230.287 51.0933 230.287 51.0298C230.287 50.8931 230.253 50.7905 230.185 50.7222C230.118 50.6522 229.997 50.6172 229.821 50.6172C229.697 50.6172 229.56 50.6514 229.411 50.7197C229.263 50.7881 229.118 50.8695 228.976 50.9639L228.505 53H228.046L228.676 50.2729H229.135L229.064 50.5757C229.238 50.4536 229.401 50.36 229.552 50.2949C229.705 50.2298 229.862 50.1973 230.023 50.1973C230.261 50.1973 230.446 50.2575 230.578 50.3779C230.711 50.4967 230.778 50.6693 230.778 50.8955ZM232.392 53.061C232.219 53.061 232.066 53.0407 231.933 53C231.801 52.9593 231.685 52.895 231.586 52.8071C231.49 52.7225 231.416 52.6159 231.364 52.4873C231.312 52.3587 231.286 52.209 231.286 52.0381C231.286 51.7826 231.326 51.5441 231.405 51.3228C231.485 51.1014 231.598 50.9069 231.745 50.7393C231.886 50.5765 232.061 50.4479 232.27 50.3535C232.478 50.2575 232.702 50.2095 232.943 50.2095C233.103 50.2095 233.253 50.2314 233.393 50.2754C233.534 50.3193 233.659 50.3714 233.766 50.4316L233.666 50.9272H233.639C233.607 50.8979 233.566 50.8638 233.517 50.8247C233.468 50.7856 233.41 50.749 233.344 50.7148C233.277 50.679 233.203 50.6497 233.122 50.627C233.04 50.6025 232.947 50.5903 232.843 50.5903C232.528 50.5903 232.27 50.7238 232.069 50.9907C231.871 51.2576 231.771 51.5824 231.771 51.9648C231.771 52.1943 231.83 52.3709 231.947 52.4946C232.066 52.6183 232.235 52.6802 232.453 52.6802C232.555 52.6802 232.658 52.6655 232.76 52.6362C232.863 52.6069 232.95 52.5752 233.021 52.541C233.101 52.5036 233.175 52.4637 233.244 52.4214C233.312 52.3791 233.362 52.3473 233.393 52.3262H233.419L233.322 52.8267C233.18 52.8901 233.03 52.9455 232.873 52.9927C232.715 53.0382 232.554 53.061 232.392 53.061ZM235.155 49.3403L235.045 49.8164H234.528L234.638 49.3403H235.155ZM234.911 50.2729L234.281 53H233.822L234.452 50.2729H234.911ZM236.042 53.0659C235.838 53.0659 235.656 53.0407 235.495 52.9902C235.335 52.9398 235.202 52.8853 235.094 52.8267L235.197 52.3359H235.221C235.255 52.3652 235.299 52.4002 235.353 52.4409C235.408 52.48 235.478 52.519 235.563 52.5581C235.639 52.5955 235.727 52.6281 235.824 52.6558C235.924 52.6818 236.029 52.6948 236.142 52.6948C236.371 52.6948 236.551 52.6525 236.681 52.5679C236.811 52.4832 236.876 52.3587 236.876 52.1943C236.876 52.1081 236.843 52.0422 236.776 51.9966C236.71 51.9494 236.614 51.9111 236.488 51.8818C236.425 51.8672 236.348 51.8509 236.259 51.833C236.171 51.8151 236.081 51.7939 235.99 51.7695C235.8 51.7158 235.659 51.6385 235.568 51.5376C235.477 51.4351 235.431 51.3105 235.431 51.1641C235.431 51.0371 235.459 50.9183 235.514 50.8076C235.569 50.6969 235.652 50.5952 235.761 50.5024C235.865 50.4146 235.998 50.3438 236.159 50.29C236.32 50.2347 236.499 50.207 236.696 50.207C236.859 50.207 237.021 50.2274 237.182 50.2681C237.344 50.3088 237.477 50.3592 237.58 50.4194L237.482 50.8882H237.458C237.431 50.867 237.392 50.8385 237.338 50.8027C237.286 50.7669 237.219 50.7303 237.138 50.6929C237.068 50.6619 236.986 50.6351 236.891 50.6123C236.798 50.5895 236.701 50.5781 236.601 50.5781C236.397 50.5781 236.232 50.6213 236.105 50.7075C235.978 50.7922 235.915 50.9085 235.915 51.0566C235.915 51.138 235.945 51.2064 236.007 51.2617C236.069 51.3154 236.164 51.3577 236.291 51.3887C236.37 51.4082 236.453 51.4269 236.54 51.4448C236.627 51.4611 236.712 51.479 236.793 51.4985C236.982 51.5457 237.124 51.619 237.218 51.7183C237.314 51.8175 237.362 51.9421 237.362 52.0918C237.362 52.2171 237.332 52.34 237.272 52.4604C237.213 52.5793 237.128 52.6826 237.016 52.7705C236.9 52.8633 236.76 52.9357 236.596 52.9878C236.431 53.0399 236.247 53.0659 236.042 53.0659ZM238.979 53.061C238.806 53.061 238.653 53.0407 238.52 53C238.388 52.9593 238.272 52.895 238.173 52.8071C238.077 52.7225 238.003 52.6159 237.951 52.4873C237.899 52.3587 237.873 52.209 237.873 52.0381C237.873 51.7826 237.912 51.5441 237.992 51.3228C238.072 51.1014 238.185 50.9069 238.332 50.7393C238.473 50.5765 238.648 50.4479 238.856 50.3535C239.065 50.2575 239.289 50.2095 239.53 50.2095C239.69 50.2095 239.84 50.2314 239.979 50.2754C240.121 50.3193 240.246 50.3714 240.353 50.4316L240.253 50.9272H240.226C240.194 50.8979 240.153 50.8638 240.104 50.8247C240.055 50.7856 239.997 50.749 239.931 50.7148C239.864 50.679 239.79 50.6497 239.708 50.627C239.627 50.6025 239.534 50.5903 239.43 50.5903C239.114 50.5903 238.856 50.7238 238.656 50.9907C238.458 51.2576 238.358 51.5824 238.358 51.9648C238.358 52.1943 238.417 52.3709 238.534 52.4946C238.653 52.6183 238.821 52.6802 239.04 52.6802C239.142 52.6802 239.245 52.6655 239.347 52.6362C239.45 52.6069 239.537 52.5752 239.608 52.541C239.688 52.5036 239.762 52.4637 239.831 52.4214C239.899 52.3791 239.949 52.3473 239.979 52.3262H240.006L239.909 52.8267C239.767 52.8901 239.617 52.9455 239.459 52.9927C239.302 53.0382 239.141 53.061 238.979 53.061ZM243.085 51.2373C243.085 51.4814 243.048 51.7158 242.973 51.9404C242.898 52.165 242.792 52.3604 242.655 52.5264C242.514 52.6989 242.35 52.834 242.165 52.9316C241.979 53.0277 241.763 53.0757 241.515 53.0757C241.191 53.0757 240.938 52.9837 240.756 52.7998C240.575 52.6143 240.485 52.3587 240.485 52.0332C240.485 51.7891 240.521 51.5563 240.595 51.335C240.67 51.1136 240.777 50.9167 240.917 50.7441C241.052 50.5781 241.217 50.4455 241.413 50.3462C241.61 50.2469 241.824 50.1973 242.057 50.1973C242.371 50.1973 242.621 50.2868 242.807 50.4658C242.992 50.6449 243.085 50.902 243.085 51.2373ZM242.338 52.2676C242.426 52.1374 242.493 51.9868 242.538 51.8159C242.585 51.645 242.609 51.4644 242.609 51.2739C242.609 51.0461 242.554 50.8735 242.445 50.7563C242.336 50.6392 242.182 50.5806 241.984 50.5806C241.826 50.5806 241.684 50.6188 241.559 50.6953C241.434 50.7702 241.326 50.8735 241.234 51.0054C241.146 51.134 241.079 51.2845 241.032 51.457C240.985 51.6296 240.961 51.8086 240.961 51.9941C240.961 52.2188 241.015 52.3913 241.125 52.5117C241.234 52.6322 241.388 52.6924 241.588 52.6924C241.745 52.6924 241.886 52.6549 242.013 52.5801C242.14 52.5052 242.248 52.401 242.338 52.2676Z" fill="#6090BC"/>
</g>
<rect x="0.25" y="0.25" width="249.5" height="56.5" stroke="#0A5896" stroke-width="0.5"/>
<defs>
<clipPath id="clip0_545_31">
<rect width="250" height="57" fill="white"/>
</clipPath>
</defs>
</svg>
